<?xml version="1.0" standalone="no"?>
 <!DOCTYPE svg PUBLIC "-//W3C//DTD SVG 1.1//EN" 
 "http://www.w3.org/Graphics/SVG/1.1/DTD/svg11.dtd"> 
<svg
  xmlns:svg="http://www.w3.org/2000/svg"
  xmlns="http://www.w3.org/2000/svg"
  xmlns:xlink="http://www.w3.org/1999/xlink"
  version="1.1"
  width="29.700220cm" height="21.000720cm" viewBox="0 0 116930 82680">
<title>SVG Picture created as picblinker.svg date 2022/01/22 15:45:59 </title>
  <desc>Picture generated by Eeschema-SVG </desc>
<g style="fill:#000000; fill-opacity:1.000000;stroke:#000000; stroke-opacity:1.000000;
stroke-linecap:round; stroke-linejoin:round;"
 transform="translate(0 0) scale(1 1)">
</g>
<g style="fill:#840000; fill-opacity:0.0; 
stroke:#840000; stroke-width:0.000000; stroke-opacity:1; 
stroke-linecap:round; stroke-linejoin:round;">
</g>
<g style="fill:#840000; fill-opacity:0.0; 
stroke:#840000; stroke-width:60.000000; stroke-opacity:1; 
stroke-linecap:round; stroke-linejoin:round;">
<rect x="69685.905512" y="65357.165354" width="42519.685039" height="12598.425197" rx="0.000000" />
<rect x="3937.007874" y="3937.007874" width="109055.984252" height="74805.984252" rx="0.000000" />
<rect x="4724.409449" y="4724.409449" width="107481.181102" height="73231.181102" rx="0.000000" />
<path d="M23622 4724
L23622 3937
" />
<path d="M43307 4724
L43307 3937
" />
<path d="M62992 4724
L62992 3937
" />
<path d="M82677 4724
L82677 3937
" />
<path d="M102362 4724
L102362 3937
" />
<text x="13779.527559" y="4586.614173"
textLength="547.440945" font-size="682.401575" lengthAdjust="spacingAndGlyphs"
text-anchor="start" opacity="0">1</text>
<g class="stroked-text"><desc>1</desc>
<path d="M14199 4562
L13907 4562
" />
<path d="M14053 4562
L14053 4050
L14004 4123
L13955 4172
L13907 4196
" />
</g><text x="33464.566929" y="4586.614173"
textLength="547.440945" font-size="682.401575" lengthAdjust="spacingAndGlyphs"
text-anchor="start" opacity="0">2</text>
<g class="stroked-text"><desc>2</desc>
<path d="M33592 4099
L33616 4074
L33665 4050
L33787 4050
L33835 4074
L33860 4099
L33884 4147
L33884 4196
L33860 4269
L33567 4562
L33884 4562
" />
</g><text x="53149.606299" y="4586.614173"
textLength="547.440945" font-size="682.401575" lengthAdjust="spacingAndGlyphs"
text-anchor="start" opacity="0">3</text>
<g class="stroked-text"><desc>3</desc>
<path d="M53252 4050
L53569 4050
L53398 4245
L53472 4245
L53520 4269
L53545 4294
L53569 4342
L53569 4464
L53545 4513
L53520 4537
L53472 4562
L53325 4562
L53277 4537
L53252 4513
" />
</g><text x="72834.645669" y="4586.614173"
textLength="547.440945" font-size="682.401575" lengthAdjust="spacingAndGlyphs"
text-anchor="start" opacity="0">4</text>
<g class="stroked-text"><desc>4</desc>
<path d="M73205 4221
L73205 4562
" />
<path d="M73083 4026
L72962 4391
L73278 4391
" />
</g><text x="92519.685039" y="4586.614173"
textLength="547.440945" font-size="682.401575" lengthAdjust="spacingAndGlyphs"
text-anchor="start" opacity="0">5</text>
<g class="stroked-text"><desc>5</desc>
<path d="M92915 4050
L92671 4050
L92647 4294
L92671 4269
L92720 4245
L92842 4245
L92890 4269
L92915 4294
L92939 4342
L92939 4464
L92915 4513
L92890 4537
L92842 4562
L92720 4562
L92671 4537
L92647 4513
" />
</g><text x="112204.724409" y="4586.614173"
textLength="547.440945" font-size="682.401575" lengthAdjust="spacingAndGlyphs"
text-anchor="start" opacity="0">6</text>
<g class="stroked-text"><desc>6</desc>
<path d="M112575 4050
L112478 4050
L112429 4074
L112405 4099
L112356 4172
L112332 4269
L112332 4464
L112356 4513
L112380 4537
L112429 4562
L112527 4562
L112575 4537
L112600 4513
L112624 4464
L112624 4342
L112600 4294
L112575 4269
L112527 4245
L112429 4245
L112380 4269
L112356 4294
L112332 4342
" />
</g><path d="M23622 77955
L23622 78742
" />
<path d="M43307 77955
L43307 78742
" />
<path d="M62992 77955
L62992 78742
" />
<path d="M82677 77955
L82677 78742
" />
<path d="M102362 77955
L102362 78742
" />
<text x="13779.527559" y="78605.196850"
textLength="547.440945" font-size="682.401575" lengthAdjust="spacingAndGlyphs"
text-anchor="start" opacity="0">1</text>
<g class="stroked-text"><desc>1</desc>
<path d="M14199 78580
L13907 78580
" />
<path d="M14053 78580
L14053 78068
L14004 78142
L13955 78190
L13907 78215
" />
</g><text x="33464.566929" y="78605.196850"
textLength="547.440945" font-size="682.401575" lengthAdjust="spacingAndGlyphs"
text-anchor="start" opacity="0">2</text>
<g class="stroked-text"><desc>2</desc>
<path d="M33592 78117
L33616 78093
L33665 78068
L33787 78068
L33835 78093
L33860 78117
L33884 78166
L33884 78215
L33860 78288
L33567 78580
L33884 78580
" />
</g><text x="53149.606299" y="78605.196850"
textLength="547.440945" font-size="682.401575" lengthAdjust="spacingAndGlyphs"
text-anchor="start" opacity="0">3</text>
<g class="stroked-text"><desc>3</desc>
<path d="M53252 78068
L53569 78068
L53398 78263
L53472 78263
L53520 78288
L53545 78312
L53569 78361
L53569 78483
L53545 78532
L53520 78556
L53472 78580
L53325 78580
L53277 78556
L53252 78532
" />
</g><text x="72834.645669" y="78605.196850"
textLength="547.440945" font-size="682.401575" lengthAdjust="spacingAndGlyphs"
text-anchor="start" opacity="0">4</text>
<g class="stroked-text"><desc>4</desc>
<path d="M73205 78239
L73205 78580
" />
<path d="M73083 78044
L72962 78410
L73278 78410
" />
</g><text x="92519.685039" y="78605.196850"
textLength="547.440945" font-size="682.401575" lengthAdjust="spacingAndGlyphs"
text-anchor="start" opacity="0">5</text>
<g class="stroked-text"><desc>5</desc>
<path d="M92915 78068
L92671 78068
L92647 78312
L92671 78288
L92720 78263
L92842 78263
L92890 78288
L92915 78312
L92939 78361
L92939 78483
L92915 78532
L92890 78556
L92842 78580
L92720 78580
L92671 78556
L92647 78532
" />
</g><text x="112204.724409" y="78605.196850"
textLength="547.440945" font-size="682.401575" lengthAdjust="spacingAndGlyphs"
text-anchor="start" opacity="0">6</text>
<g class="stroked-text"><desc>6</desc>
<path d="M112575 78068
L112478 78068
L112429 78093
L112405 78117
L112356 78190
L112332 78288
L112332 78483
L112356 78532
L112380 78556
L112429 78580
L112527 78580
L112575 78556
L112600 78532
L112624 78483
L112624 78361
L112600 78312
L112575 78288
L112527 78263
L112429 78263
L112380 78288
L112356 78312
L112332 78361
" />
</g><path d="M3937 23622
L4724 23622
" />
<path d="M3937 43307
L4724 43307
" />
<path d="M3937 62992
L4724 62992
" />
<text x="4330.708661" y="14035.433071"
textLength="498.700787" font-size="682.401575" lengthAdjust="spacingAndGlyphs"
text-anchor="middle" opacity="0">A</text>
<g class="stroked-text"><desc>A</desc>
<path d="M4208 13864
L4452 13864
" />
<path d="M4160 14011
L4330 13499
L4501 14011
" />
</g><text x="4330.708661" y="33720.472441"
textLength="571.811024" font-size="682.401575" lengthAdjust="spacingAndGlyphs"
text-anchor="middle" opacity="0">B</text>
<g class="stroked-text"><desc>B</desc>
<path d="M4367 33427
L4440 33452
L4464 33476
L4489 33525
L4489 33598
L4464 33647
L4440 33671
L4391 33696
L4196 33696
L4196 33184
L4367 33184
L4415 33208
L4440 33233
L4464 33281
L4464 33330
L4440 33379
L4415 33403
L4367 33427
L4196 33427
" />
</g><text x="4330.708661" y="53405.511811"
textLength="571.811024" font-size="682.401575" lengthAdjust="spacingAndGlyphs"
text-anchor="middle" opacity="0">C</text>
<g class="stroked-text"><desc>C</desc>
<path d="M4489 53332
L4464 53356
L4391 53381
L4342 53381
L4269 53356
L4221 53307
L4196 53259
L4172 53161
L4172 53088
L4196 52991
L4221 52942
L4269 52893
L4342 52869
L4391 52869
L4464 52893
L4489 52918
" />
</g><text x="4330.708661" y="73090.551181"
textLength="571.811024" font-size="682.401575" lengthAdjust="spacingAndGlyphs"
text-anchor="middle" opacity="0">D</text>
<g class="stroked-text"><desc>D</desc>
<path d="M4196 73066
L4196 72554
L4318 72554
L4391 72578
L4440 72627
L4464 72676
L4489 72773
L4489 72846
L4464 72944
L4440 72993
L4391 73041
L4318 73066
L4196 73066
" />
</g><path d="M112992 23622
L112205 23622
" />
<path d="M112992 43307
L112205 43307
" />
<path d="M112992 62992
L112205 62992
" />
<text x="112599.291339" y="14035.433071"
textLength="498.700787" font-size="682.401575" lengthAdjust="spacingAndGlyphs"
text-anchor="middle" opacity="0">A</text>
<g class="stroked-text"><desc>A</desc>
<path d="M112477 13864
L112721 13864
" />
<path d="M112428 14011
L112599 13499
L112769 14011
" />
</g><text x="112599.291339" y="33720.472441"
textLength="571.811024" font-size="682.401575" lengthAdjust="spacingAndGlyphs"
text-anchor="middle" opacity="0">B</text>
<g class="stroked-text"><desc>B</desc>
<path d="M112635 33427
L112708 33452
L112733 33476
L112757 33525
L112757 33598
L112733 33647
L112708 33671
L112660 33696
L112465 33696
L112465 33184
L112635 33184
L112684 33208
L112708 33233
L112733 33281
L112733 33330
L112708 33379
L112684 33403
L112635 33427
L112465 33427
" />
</g><text x="112599.291339" y="53405.511811"
textLength="571.811024" font-size="682.401575" lengthAdjust="spacingAndGlyphs"
text-anchor="middle" opacity="0">C</text>
<g class="stroked-text"><desc>C</desc>
<path d="M112757 53332
L112733 53356
L112660 53381
L112611 53381
L112538 53356
L112489 53307
L112465 53259
L112440 53161
L112440 53088
L112465 52991
L112489 52942
L112538 52893
L112611 52869
L112660 52869
L112733 52893
L112757 52918
" />
</g><text x="112599.291339" y="73090.551181"
textLength="571.811024" font-size="682.401575" lengthAdjust="spacingAndGlyphs"
text-anchor="middle" opacity="0">D</text>
<g class="stroked-text"><desc>D</desc>
<path d="M112465 73066
L112465 72554
L112587 72554
L112660 72578
L112708 72627
L112733 72676
L112757 72773
L112757 72846
L112733 72944
L112708 72993
L112660 73041
L112587 73066
L112465 73066
" />
</g><text x="78741.023622" y="76321.732283"
textLength="2759.645669" font-size="787.401575" lengthAdjust="spacingAndGlyphs"
text-anchor="start" opacity="0">Date: </text>
<g class="stroked-text"><desc>Date: </desc>
<path d="M78911 76293
L78911 75703
L79052 75703
L79136 75731
L79192 75787
L79220 75843
L79249 75956
L79249 76040
L79220 76152
L79192 76209
L79136 76265
L79052 76293
L78911 76293
" />
<path d="M79755 76293
L79755 75984
L79727 75928
L79670 75899
L79558 75899
L79502 75928
" />
<path d="M79755 76265
L79699 76293
L79558 76293
L79502 76265
L79474 76209
L79474 76152
L79502 76096
L79558 76068
L79699 76068
L79755 76040
" />
<path d="M79952 75899
L80177 75899
" />
<path d="M80036 75703
L80036 76209
L80064 76265
L80120 76293
L80177 76293
" />
<path d="M80598 76265
L80542 76293
L80430 76293
L80373 76265
L80345 76209
L80345 75984
L80373 75928
L80430 75899
L80542 75899
L80598 75928
L80627 75984
L80627 76040
L80345 76096
" />
<path d="M80880 76237
L80908 76265
L80880 76293
L80852 76265
L80880 76237
L80880 76293
" />
<path d="M80880 75928
L80908 75956
L80880 75984
L80852 75956
L80880 75928
L80880 75984
" />
</g><path d="M69685 76577
L112205 76577
" />
<text x="70079.606299" y="77424.094488"
textLength="26550.433071" font-size="787.401575" lengthAdjust="spacingAndGlyphs"
text-anchor="start" opacity="0">KiCad E.D.A.  kicad 6.0.1-79c1e3a40b~116~ubuntu20.04.1</text>
<g class="stroked-text"><desc>KiCad E.D.A.  kicad 6.0.1-79c1e3a40b~116~ubuntu20.04.1</desc>
<path d="M70250 77395
L70250 76805
" />
<path d="M70587 77395
L70334 77058
" />
<path d="M70587 76805
L70250 77142
" />
<path d="M70840 77395
L70840 77002
" />
<path d="M70840 76805
L70812 76833
L70840 76861
L70868 76833
L70840 76805
L70840 76861
" />
<path d="M71459 77339
L71431 77367
L71346 77395
L71290 77395
L71206 77367
L71150 77311
L71121 77255
L71093 77142
L71093 77058
L71121 76946
L71150 76889
L71206 76833
L71290 76805
L71346 76805
L71431 76833
L71459 76861
" />
<path d="M71965 77395
L71965 77086
L71937 77030
L71881 77002
L71768 77002
L71712 77030
" />
<path d="M71965 77367
L71909 77395
L71768 77395
L71712 77367
L71684 77311
L71684 77255
L71712 77199
L71768 77170
L71909 77170
L71965 77142
" />
<path d="M72499 77395
L72499 76805
" />
<path d="M72499 77367
L72443 77395
L72331 77395
L72274 77367
L72246 77339
L72218 77283
L72218 77114
L72246 77058
L72274 77030
L72331 77002
L72443 77002
L72499 77030
" />
<path d="M73231 77086
L73427 77086
" />
<path d="M73512 77395
L73231 77395
L73231 76805
L73512 76805
" />
<path d="M73765 77339
L73793 77367
L73765 77395
L73737 77367
L73765 77339
L73765 77395
" />
<path d="M74046 77395
L74046 76805
L74187 76805
L74271 76833
L74327 76889
L74355 76946
L74384 77058
L74384 77142
L74355 77255
L74327 77311
L74271 77367
L74187 77395
L74046 77395
" />
<path d="M74637 77339
L74665 77367
L74637 77395
L74609 77367
L74637 77339
L74637 77395
" />
<path d="M74890 77227
L75171 77227
" />
<path d="M74834 77395
L75030 76805
L75227 77395
" />
<path d="M75424 77339
L75452 77367
L75424 77395
L75396 77367
L75424 77339
L75424 77395
" />
<path d="M76605 77395
L76605 76805
" />
<path d="M76661 77170
L76830 77395
" />
<path d="M76830 77002
L76605 77227
" />
<path d="M77083 77395
L77083 77002
" />
<path d="M77083 76805
L77055 76833
L77083 76861
L77111 76833
L77083 76805
L77083 76861
" />
<path d="M77618 77367
L77561 77395
L77449 77395
L77393 77367
L77364 77339
L77336 77283
L77336 77114
L77364 77058
L77393 77030
L77449 77002
L77561 77002
L77618 77030
" />
<path d="M78124 77395
L78124 77086
L78096 77030
L78039 77002
L77927 77002
L77871 77030
" />
<path d="M78124 77367
L78067 77395
L77927 77395
L77871 77367
L77842 77311
L77842 77255
L77871 77199
L77927 77170
L78067 77170
L78124 77142
" />
<path d="M78658 77395
L78658 76805
" />
<path d="M78658 77367
L78602 77395
L78489 77395
L78433 77367
L78405 77339
L78377 77283
L78377 77114
L78405 77058
L78433 77030
L78489 77002
L78602 77002
L78658 77030
" />
<path d="M79642 76805
L79530 76805
L79474 76833
L79445 76861
L79389 76946
L79361 77058
L79361 77283
L79389 77339
L79417 77367
L79474 77395
L79586 77395
L79642 77367
L79670 77339
L79699 77283
L79699 77142
L79670 77086
L79642 77058
L79586 77030
L79474 77030
L79417 77058
L79389 77086
L79361 77142
" />
<path d="M79952 77339
L79980 77367
L79952 77395
L79923 77367
L79952 77339
L79952 77395
" />
<path d="M80345 76805
L80402 76805
L80458 76833
L80486 76861
L80514 76917
L80542 77030
L80542 77170
L80514 77283
L80486 77339
L80458 77367
L80402 77395
L80345 77395
L80289 77367
L80261 77339
L80233 77283
L80205 77170
L80205 77030
L80233 76917
L80261 76861
L80289 76833
L80345 76805
" />
<path d="M80795 77339
L80823 77367
L80795 77395
L80767 77367
L80795 77339
L80795 77395
" />
<path d="M81386 77395
L81048 77395
" />
<path d="M81217 77395
L81217 76805
L81161 76889
L81105 76946
L81048 76974
" />
<path d="M81639 77170
L82089 77170
" />
<path d="M82314 76805
L82708 76805
L82454 77395
" />
<path d="M82961 77395
L83073 77395
L83129 77367
L83157 77339
L83214 77255
L83242 77142
L83242 76917
L83214 76861
L83186 76833
L83129 76805
L83017 76805
L82961 76833
L82932 76861
L82904 76917
L82904 77058
L82932 77114
L82961 77142
L83017 77170
L83129 77170
L83186 77142
L83214 77114
L83242 77058
" />
<path d="M83748 77367
L83692 77395
L83579 77395
L83523 77367
L83495 77339
L83467 77283
L83467 77114
L83495 77058
L83523 77030
L83579 77002
L83692 77002
L83748 77030
" />
<path d="M84310 77395
L83973 77395
" />
<path d="M84142 77395
L84142 76805
L84085 76889
L84029 76946
L83973 76974
" />
<path d="M84789 77367
L84732 77395
L84620 77395
L84564 77367
L84535 77311
L84535 77086
L84564 77030
L84620 77002
L84732 77002
L84789 77030
L84817 77086
L84817 77142
L84535 77199
" />
<path d="M85013 76805
L85379 76805
L85182 77030
L85267 77030
L85323 77058
L85351 77086
L85379 77142
L85379 77283
L85351 77339
L85323 77367
L85267 77395
L85098 77395
L85042 77367
L85013 77339
" />
<path d="M85885 77395
L85885 77086
L85857 77030
L85801 77002
L85688 77002
L85632 77030
" />
<path d="M85885 77367
L85829 77395
L85688 77395
L85632 77367
L85604 77311
L85604 77255
L85632 77199
L85688 77170
L85829 77170
L85885 77142
" />
<path d="M86420 77002
L86420 77395
" />
<path d="M86279 76777
L86138 77199
L86504 77199
" />
<path d="M86841 76805
L86898 76805
L86954 76833
L86982 76861
L87010 76917
L87038 77030
L87038 77170
L87010 77283
L86982 77339
L86954 77367
L86898 77395
L86841 77395
L86785 77367
L86757 77339
L86729 77283
L86701 77170
L86701 77030
L86729 76917
L86757 76861
L86785 76833
L86841 76805
" />
<path d="M87291 77395
L87291 76805
" />
<path d="M87291 77030
L87348 77002
L87460 77002
L87516 77030
L87544 77058
L87573 77114
L87573 77283
L87544 77339
L87516 77367
L87460 77395
L87348 77395
L87291 77367
" />
<path d="M87741 77170
L87769 77142
L87826 77114
L87938 77170
L87994 77142
L88022 77114
" />
<path d="M88557 77395
L88219 77395
" />
<path d="M88388 77395
L88388 76805
L88332 76889
L88276 76946
L88219 76974
" />
<path d="M89119 77395
L88782 77395
" />
<path d="M88950 77395
L88950 76805
L88894 76889
L88838 76946
L88782 76974
" />
<path d="M89625 76805
L89513 76805
L89457 76833
L89429 76861
L89372 76946
L89344 77058
L89344 77283
L89372 77339
L89400 77367
L89457 77395
L89569 77395
L89625 77367
L89654 77339
L89682 77283
L89682 77142
L89654 77086
L89625 77058
L89569 77030
L89457 77030
L89400 77058
L89372 77086
L89344 77142
" />
<path d="M89850 77170
L89878 77142
L89935 77114
L90047 77170
L90103 77142
L90132 77114
" />
<path d="M90610 77002
L90610 77395
" />
<path d="M90357 77002
L90357 77311
L90385 77367
L90441 77395
L90525 77395
L90582 77367
L90610 77339
" />
<path d="M90891 77395
L90891 76805
" />
<path d="M90891 77030
L90947 77002
L91060 77002
L91116 77030
L91144 77058
L91172 77114
L91172 77283
L91144 77339
L91116 77367
L91060 77395
L90947 77395
L90891 77367
" />
<path d="M91678 77002
L91678 77395
" />
<path d="M91425 77002
L91425 77311
L91453 77367
L91510 77395
L91594 77395
L91650 77367
L91678 77339
" />
<path d="M91959 77002
L91959 77395
" />
<path d="M91959 77058
L91988 77030
L92044 77002
L92128 77002
L92184 77030
L92213 77086
L92213 77395
" />
<path d="M92409 77002
L92634 77002
" />
<path d="M92494 76805
L92494 77311
L92522 77367
L92578 77395
L92634 77395
" />
<path d="M93084 77002
L93084 77395
" />
<path d="M92831 77002
L92831 77311
L92859 77367
L92916 77395
L93000 77395
L93056 77367
L93084 77339
" />
<path d="M93337 76861
L93366 76833
L93422 76805
L93562 76805
L93619 76833
L93647 76861
L93675 76917
L93675 76974
L93647 77058
L93309 77395
L93675 77395
" />
<path d="M94040 76805
L94097 76805
L94153 76833
L94181 76861
L94209 76917
L94237 77030
L94237 77170
L94209 77283
L94181 77339
L94153 77367
L94097 77395
L94040 77395
L93984 77367
L93956 77339
L93928 77283
L93900 77170
L93900 77030
L93928 76917
L93956 76861
L93984 76833
L94040 76805
" />
<path d="M94490 77339
L94519 77367
L94490 77395
L94462 77367
L94490 77339
L94490 77395
" />
<path d="M94884 76805
L94940 76805
L94997 76833
L95025 76861
L95053 76917
L95081 77030
L95081 77170
L95053 77283
L95025 77339
L94997 77367
L94940 77395
L94884 77395
L94828 77367
L94800 77339
L94772 77283
L94744 77170
L94744 77030
L94772 76917
L94800 76861
L94828 76833
L94884 76805
" />
<path d="M95587 77002
L95587 77395
" />
<path d="M95447 76777
L95306 77199
L95672 77199
" />
<path d="M95896 77339
L95925 77367
L95896 77395
L95868 77367
L95896 77339
L95896 77395
" />
<path d="M96487 77395
L96150 77395
" />
<path d="M96318 77395
L96318 76805
L96262 76889
L96206 76946
L96150 76974
" />
</g><path d="M69685 75396
L112205 75396
" />
</g>
<g style="fill:#840000; fill-opacity:0.0; 
stroke:#840000; stroke-width:118.110236; stroke-opacity:1; 
stroke-linecap:round; stroke-linejoin:round;">
<text x="103544.173228" y="76321.732283"
textLength="2337.834646" font-size="787.401575" lengthAdjust="spacingAndGlyphs"
text-anchor="start" opacity="0">Rev: </text>
<g class="stroked-text"><desc>Rev: </desc>
<path d="M104098 76293
L103902 76012
" />
<path d="M103761 76293
L103761 75703
L103986 75703
L104042 75731
L104070 75759
L104098 75815
L104098 75899
L104070 75956
L104042 75984
L103986 76012
L103761 76012
" />
<path d="M104577 76265
L104520 76293
L104408 76293
L104352 76265
L104323 76209
L104323 75984
L104352 75928
L104408 75899
L104520 75899
L104577 75928
L104605 75984
L104605 76040
L104323 76096
" />
<path d="M104802 75899
L104942 76293
L105083 75899
" />
<path d="M105308 76237
L105336 76265
L105308 76293
L105280 76265
L105308 76237
L105308 76293
" />
<path d="M105308 75928
L105336 75956
L105308 75984
L105280 75956
L105308 75928
L105308 75984
" />
</g></g>
<g style="fill:#840000; fill-opacity:0.0; 
stroke:#840000; stroke-width:60.000000; stroke-opacity:1; 
stroke-linecap:round; stroke-linejoin:round;">
<text x="70079.606299" y="76321.732283"
textLength="3781.220472" font-size="787.401575" lengthAdjust="spacingAndGlyphs"
text-anchor="start" opacity="0">Size: A4</text>
<g class="stroked-text"><desc>Size: A4</desc>
<path d="M70222 76265
L70306 76293
L70447 76293
L70503 76265
L70531 76237
L70559 76181
L70559 76124
L70531 76068
L70503 76040
L70447 76012
L70334 75984
L70278 75956
L70250 75928
L70222 75871
L70222 75815
L70250 75759
L70278 75731
L70334 75703
L70475 75703
L70559 75731
" />
<path d="M70812 76293
L70812 75899
" />
<path d="M70812 75703
L70784 75731
L70812 75759
L70840 75731
L70812 75703
L70812 75759
" />
<path d="M71037 75899
L71346 75899
L71037 76293
L71346 76293
" />
<path d="M71796 76265
L71740 76293
L71628 76293
L71571 76265
L71543 76209
L71543 75984
L71571 75928
L71628 75899
L71740 75899
L71796 75928
L71825 75984
L71825 76040
L71543 76096
" />
<path d="M72078 76237
L72106 76265
L72078 76293
L72049 76265
L72078 76237
L72078 76293
" />
<path d="M72078 75928
L72106 75956
L72078 75984
L72049 75956
L72078 75928
L72078 75984
" />
<path d="M72781 76124
L73062 76124
" />
<path d="M72724 76293
L72921 75703
L73118 76293
" />
<path d="M73568 75899
L73568 76293
" />
<path d="M73427 75674
L73287 76096
L73652 76096
" />
</g><text x="103544.173228" y="77424.094488"
textLength="3350.196850" font-size="787.401575" lengthAdjust="spacingAndGlyphs"
text-anchor="start" opacity="0">Id: 1/1</text>
<g class="stroked-text"><desc>Id: 1/1</desc>
<path d="M103714 77395
L103714 76805
" />
<path d="M104249 77395
L104249 76805
" />
<path d="M104249 77367
L104192 77395
L104080 77395
L104024 77367
L103995 77339
L103967 77283
L103967 77114
L103995 77058
L104024 77030
L104080 77002
L104192 77002
L104249 77030
" />
<path d="M104530 77339
L104558 77367
L104530 77395
L104502 77367
L104530 77339
L104530 77395
" />
<path d="M104530 77030
L104558 77058
L104530 77086
L104502 77058
L104530 77030
L104530 77086
" />
<path d="M105570 77395
L105233 77395
" />
<path d="M105402 77395
L105402 76805
L105345 76889
L105289 76946
L105233 76974
" />
<path d="M106245 76777
L105739 77536
" />
<path d="M106751 77395
L106414 77395
" />
<path d="M106583 77395
L106583 76805
L106526 76889
L106470 76946
L106414 76974
" />
</g><path d="M69685 73821
L112205 73821
" />
</g>
<g style="fill:#840000; fill-opacity:0.0; 
stroke:#840000; stroke-width:157.480315; stroke-opacity:1; 
stroke-linecap:round; stroke-linejoin:round;">
<text x="70079.606299" y="74924.094488"
textLength="3705.511811" font-size="1049.842520" lengthAdjust="spacingAndGlyphs"
text-anchor="start" opacity="0">Title: </text>
<g class="stroked-text"><desc>Title: </desc>
<path d="M70360 74099
L70810 74099
" />
<path d="M70486 74886
L70585 74099
" />
<path d="M70974 74886
L71039 74361
" />
<path d="M71072 74099
L71030 74136
L71063 74174
L71105 74136
L71072 74099
L71063 74174
" />
<path d="M71302 74361
L71602 74361
" />
<path d="M71447 74099
L71363 74774
L71391 74849
L71461 74886
L71536 74886
" />
<path d="M71911 74886
L71841 74849
L71812 74774
L71897 74099
" />
<path d="M72516 74849
L72436 74886
L72286 74886
L72216 74849
L72187 74774
L72225 74474
L72272 74399
L72352 74361
L72501 74361
L72572 74399
L72600 74474
L72591 74549
L72206 74624
" />
<path d="M72895 74811
L72928 74849
L72886 74886
L72853 74849
L72895 74811
L72886 74886
" />
<path d="M72947 74399
L72980 74436
L72937 74474
L72905 74436
L72947 74399
L72937 74474
" />
</g></g>
<g style="fill:#840000; fill-opacity:0.0; 
stroke:#840000; stroke-width:60.000000; stroke-opacity:1; 
stroke-linecap:round; stroke-linejoin:round;">
<text x="70079.606299" y="73408.346457"
textLength="11453.307087" font-size="787.401575" lengthAdjust="spacingAndGlyphs"
text-anchor="start" opacity="0">File: picblinker.kicad_sch</text>
<g class="stroked-text"><desc>File: picblinker.kicad_sch</desc>
<path d="M70447 73070
L70250 73070
" />
<path d="M70250 73380
L70250 72789
L70531 72789
" />
<path d="M70756 73380
L70756 72986
" />
<path d="M70756 72789
L70728 72817
L70756 72845
L70784 72817
L70756 72789
L70756 72845
" />
<path d="M71121 73380
L71065 73352
L71037 73295
L71037 72789
" />
<path d="M71571 73352
L71515 73380
L71403 73380
L71346 73352
L71318 73295
L71318 73070
L71346 73014
L71403 72986
L71515 72986
L71571 73014
L71600 73070
L71600 73127
L71318 73183
" />
<path d="M71853 73323
L71881 73352
L71853 73380
L71825 73352
L71853 73323
L71853 73380
" />
<path d="M71853 73014
L71881 73042
L71853 73070
L71825 73042
L71853 73014
L71853 73070
" />
<path d="M72584 72986
L72584 73577
" />
<path d="M72584 73014
L72640 72986
L72752 72986
L72809 73014
L72837 73042
L72865 73098
L72865 73267
L72837 73323
L72809 73352
L72752 73380
L72640 73380
L72584 73352
" />
<path d="M73118 73380
L73118 72986
" />
<path d="M73118 72789
L73090 72817
L73118 72845
L73146 72817
L73118 72789
L73118 72845
" />
<path d="M73652 73352
L73596 73380
L73484 73380
L73427 73352
L73399 73323
L73371 73267
L73371 73098
L73399 73042
L73427 73014
L73484 72986
L73596 72986
L73652 73014
" />
<path d="M73905 73380
L73905 72789
" />
<path d="M73905 73014
L73962 72986
L74074 72986
L74130 73014
L74159 73042
L74187 73098
L74187 73267
L74159 73323
L74130 73352
L74074 73380
L73962 73380
L73905 73352
" />
<path d="M74524 73380
L74468 73352
L74440 73295
L74440 72789
" />
<path d="M74749 73380
L74749 72986
" />
<path d="M74749 72789
L74721 72817
L74749 72845
L74777 72817
L74749 72789
L74749 72845
" />
<path d="M75030 72986
L75030 73380
" />
<path d="M75030 73042
L75058 73014
L75115 72986
L75199 72986
L75255 73014
L75283 73070
L75283 73380
" />
<path d="M75565 73380
L75565 72789
" />
<path d="M75621 73155
L75790 73380
" />
<path d="M75790 72986
L75565 73211
" />
<path d="M76268 73352
L76211 73380
L76099 73380
L76043 73352
L76015 73295
L76015 73070
L76043 73014
L76099 72986
L76211 72986
L76268 73014
L76296 73070
L76296 73127
L76015 73183
" />
<path d="M76549 73380
L76549 72986
" />
<path d="M76549 73098
L76577 73042
L76605 73014
L76661 72986
L76718 72986
" />
<path d="M76915 73323
L76943 73352
L76915 73380
L76886 73352
L76915 73323
L76915 73380
" />
<path d="M77196 73380
L77196 72789
" />
<path d="M77252 73155
L77421 73380
" />
<path d="M77421 72986
L77196 73211
" />
<path d="M77674 73380
L77674 72986
" />
<path d="M77674 72789
L77646 72817
L77674 72845
L77702 72817
L77674 72789
L77674 72845
" />
<path d="M78208 73352
L78152 73380
L78039 73380
L77983 73352
L77955 73323
L77927 73267
L77927 73098
L77955 73042
L77983 73014
L78039 72986
L78152 72986
L78208 73014
" />
<path d="M78714 73380
L78714 73070
L78686 73014
L78630 72986
L78517 72986
L78461 73014
" />
<path d="M78714 73352
L78658 73380
L78517 73380
L78461 73352
L78433 73295
L78433 73239
L78461 73183
L78517 73155
L78658 73155
L78714 73127
" />
<path d="M79249 73380
L79249 72789
" />
<path d="M79249 73352
L79192 73380
L79080 73380
L79024 73352
L78995 73323
L78967 73267
L78967 73098
L78995 73042
L79024 73014
L79080 72986
L79192 72986
L79249 73014
" />
<path d="M79389 73436
L79839 73436
" />
<path d="M79952 73352
L80008 73380
L80120 73380
L80177 73352
L80205 73295
L80205 73267
L80177 73211
L80120 73183
L80036 73183
L79980 73155
L79952 73098
L79952 73070
L79980 73014
L80036 72986
L80120 72986
L80177 73014
" />
<path d="M80711 73352
L80655 73380
L80542 73380
L80486 73352
L80458 73323
L80430 73267
L80430 73098
L80458 73042
L80486 73014
L80542 72986
L80655 72986
L80711 73014
" />
<path d="M80964 73380
L80964 72789
" />
<path d="M81217 73380
L81217 73070
L81189 73014
L81133 72986
L81048 72986
L80992 73014
L80964 73042
" />
</g><path d="M69685 71459
L112205 71459
" />
<text x="70079.606299" y="72345.354331"
textLength="3856.417323" font-size="787.401575" lengthAdjust="spacingAndGlyphs"
text-anchor="start" opacity="0">Sheet: /</text>
<g class="stroked-text"><desc>Sheet: /</desc>
<path d="M70222 72289
L70306 72317
L70447 72317
L70503 72289
L70531 72260
L70559 72204
L70559 72148
L70531 72092
L70503 72064
L70447 72035
L70334 72007
L70278 71979
L70250 71951
L70222 71895
L70222 71839
L70250 71782
L70278 71754
L70334 71726
L70475 71726
L70559 71754
" />
<path d="M70812 72317
L70812 71726
" />
<path d="M71065 72317
L71065 72007
L71037 71951
L70981 71923
L70897 71923
L70840 71951
L70812 71979
" />
<path d="M71571 72289
L71515 72317
L71403 72317
L71346 72289
L71318 72232
L71318 72007
L71346 71951
L71403 71923
L71515 71923
L71571 71951
L71600 72007
L71600 72064
L71318 72120
" />
<path d="M72078 72289
L72021 72317
L71909 72317
L71853 72289
L71825 72232
L71825 72007
L71853 71951
L71909 71923
L72021 71923
L72078 71951
L72106 72007
L72106 72064
L71825 72120
" />
<path d="M72274 71923
L72499 71923
" />
<path d="M72359 71726
L72359 72232
L72387 72289
L72443 72317
L72499 72317
" />
<path d="M72696 72260
L72724 72289
L72696 72317
L72668 72289
L72696 72260
L72696 72317
" />
<path d="M72696 71951
L72724 71979
L72696 72007
L72668 71979
L72696 71951
L72696 72007
" />
<path d="M73849 71698
L73343 72457
" />
</g></g>
<g style="fill:#840000; fill-opacity:0.0; 
stroke:#840000; stroke-width:118.110236; stroke-opacity:1; 
stroke-linecap:round; stroke-linejoin:round;">
<text x="70079.606299" y="71164.251969"
textLength="60.000000" font-size="787.401575" lengthAdjust="spacingAndGlyphs"
text-anchor="start" opacity="0"></text>
<g class="stroked-text"><desc></desc>
</g></g>
<g style="fill:#840000; fill-opacity:0.0; 
stroke:#840000; stroke-width:60.000000; stroke-opacity:1; 
stroke-linecap:round; stroke-linejoin:round;">
<text x="70079.606299" y="69983.149606"
textLength="118.110236" font-size="787.401575" lengthAdjust="spacingAndGlyphs"
text-anchor="start" opacity="0"></text>
<g class="stroked-text"><desc></desc>
</g><text x="70079.606299" y="68802.047244"
textLength="60.000000" font-size="787.401575" lengthAdjust="spacingAndGlyphs"
text-anchor="start" opacity="0"></text>
<g class="stroked-text"><desc></desc>
</g><text x="70079.606299" y="67620.944882"
textLength="60.000000" font-size="787.401575" lengthAdjust="spacingAndGlyphs"
text-anchor="start" opacity="0"></text>
<g class="stroked-text"><desc></desc>
</g><text x="70079.606299" y="66439.842520"
textLength="60.000000" font-size="787.401575" lengthAdjust="spacingAndGlyphs"
text-anchor="start" opacity="0"></text>
<g class="stroked-text"><desc></desc>
</g><path d="M77559 75396
L77559 76577
" />
<path d="M102756 75396
L102756 77955
" />
<g >
</g>
<g style="fill:#840000; fill-opacity:0.0; 
stroke:#840000; stroke-width:500.000000; stroke-opacity:1; 
stroke-linecap:round; stroke-linejoin:round;">
<circle cx="61000.000000" cy="44000.000000" r="500.000000" /> 
</g>
<g style="fill:#840000; fill-opacity:0.0; 
stroke:#840000; stroke-width:60.000000; stroke-opacity:1; 
stroke-linecap:round; stroke-linejoin:round;">
<path d="M61000 43500
L61000 42500
" />
</g>
<g style="fill:#006464; fill-opacity:0.0; 
stroke:#006464; stroke-width:60.000000; stroke-opacity:1; 
stroke-linecap:round; stroke-linejoin:round;">
<text x="62531.259843" y="43749.921260"
textLength="1060.000000" font-size="666.653543" lengthAdjust="spacingAndGlyphs"
text-anchor="middle" opacity="0">H2</text>
<g class="stroked-text"><desc>H2</desc>
<path d="M62150 43726
L62150 43226
" />
<path d="M62150 43464
L62435 43464
" />
<path d="M62435 43726
L62435 43226
" />
<path d="M62650 43273
L62674 43249
L62721 43226
L62840 43226
L62888 43249
L62912 43273
L62935 43321
L62935 43368
L62912 43440
L62626 43726
L62935 43726
" />
</g><text x="65436.023622" y="44749.921260"
textLength="6869.527559" font-size="666.653543" lengthAdjust="spacingAndGlyphs"
text-anchor="middle" opacity="0">MountingHole_Pad</text>
<g class="stroked-text"><desc>MountingHole_Pad</desc>
<path d="M62150 44726
L62150 44226
L62316 44583
L62483 44226
L62483 44726
" />
<path d="M62793 44726
L62745 44702
L62721 44678
L62697 44630
L62697 44487
L62721 44440
L62745 44416
L62793 44392
L62864 44392
L62912 44416
L62936 44440
L62959 44487
L62959 44630
L62936 44678
L62912 44702
L62864 44726
L62793 44726
" />
<path d="M63388 44392
L63388 44726
" />
<path d="M63174 44392
L63174 44654
L63197 44702
L63245 44726
L63316 44726
L63364 44702
L63388 44678
" />
<path d="M63626 44392
L63626 44726
" />
<path d="M63626 44440
L63650 44416
L63697 44392
L63769 44392
L63816 44416
L63840 44464
L63840 44726
" />
<path d="M64007 44392
L64197 44392
" />
<path d="M64078 44226
L64078 44654
L64102 44702
L64150 44726
L64197 44726
" />
<path d="M64364 44726
L64364 44392
" />
<path d="M64364 44226
L64340 44249
L64364 44273
L64388 44249
L64364 44226
L64364 44273
" />
<path d="M64602 44392
L64602 44726
" />
<path d="M64602 44440
L64626 44416
L64674 44392
L64745 44392
L64793 44416
L64816 44464
L64816 44726
" />
<path d="M65269 44392
L65269 44797
L65245 44845
L65221 44868
L65174 44892
L65102 44892
L65055 44868
" />
<path d="M65269 44702
L65221 44726
L65126 44726
L65078 44702
L65055 44678
L65031 44630
L65031 44487
L65055 44440
L65078 44416
L65126 44392
L65221 44392
L65269 44416
" />
<path d="M65507 44726
L65507 44226
" />
<path d="M65507 44464
L65793 44464
" />
<path d="M65793 44726
L65793 44226
" />
<path d="M66102 44726
L66055 44702
L66031 44678
L66007 44630
L66007 44487
L66031 44440
L66055 44416
L66102 44392
L66174 44392
L66221 44416
L66245 44440
L66269 44487
L66269 44630
L66245 44678
L66221 44702
L66174 44726
L66102 44726
" />
<path d="M66555 44726
L66507 44702
L66483 44654
L66483 44226
" />
<path d="M66936 44702
L66888 44726
L66793 44726
L66745 44702
L66721 44654
L66721 44464
L66745 44416
L66793 44392
L66888 44392
L66936 44416
L66959 44464
L66959 44511
L66721 44559
" />
<path d="M67055 44773
L67436 44773
" />
<path d="M67555 44726
L67555 44226
L67745 44226
L67793 44249
L67816 44273
L67840 44321
L67840 44392
L67816 44440
L67793 44464
L67745 44487
L67555 44487
" />
<path d="M68269 44726
L68269 44464
L68245 44416
L68197 44392
L68102 44392
L68055 44416
" />
<path d="M68269 44702
L68221 44726
L68102 44726
L68055 44702
L68031 44654
L68031 44607
L68055 44559
L68102 44535
L68221 44535
L68269 44511
" />
<path d="M68721 44726
L68721 44226
" />
<path d="M68721 44702
L68674 44726
L68578 44726
L68531 44702
L68507 44678
L68483 44630
L68483 44487
L68507 44440
L68531 44416
L68578 44392
L68674 44392
L68721 44416
" />
</g></g>
</g>
<g style="fill:#006464; fill-opacity:0.0; 
stroke:#006464; stroke-width:60.000000; stroke-opacity:1; 
stroke-linecap:round; stroke-linejoin:round;">
<g >
</g>
<g style="fill:#840000; fill-opacity:0.0; 
stroke:#840000; stroke-width:60.000000; stroke-opacity:1; 
stroke-linecap:round; stroke-linejoin:round;">
</g>
<g style="fill:#840000; fill-opacity:0.0; 
stroke:#840000; stroke-width:500.000000; stroke-opacity:1; 
stroke-linecap:round; stroke-linejoin:round;">
<circle cx="54500.000000" cy="26500.000000" r="500.000000" /> 
</g>
<g style="fill:#840000; fill-opacity:0.0; 
stroke:#840000; stroke-width:60.000000; stroke-opacity:1; 
stroke-linecap:round; stroke-linejoin:round;">
<path d="M54500 27000
L54500 28000
" />
</g>
<g style="fill:#006464; fill-opacity:0.0; 
stroke:#006464; stroke-width:60.000000; stroke-opacity:1; 
stroke-linecap:round; stroke-linejoin:round;">
<text x="56031.259843" y="26249.960630"
textLength="1060.000000" font-size="666.653543" lengthAdjust="spacingAndGlyphs"
text-anchor="middle" opacity="0">H1</text>
<g class="stroked-text"><desc>H1</desc>
<path d="M55650 26226
L55650 25726
" />
<path d="M55650 25964
L55935 25964
" />
<path d="M55935 26226
L55935 25726
" />
<path d="M56435 26226
L56150 26226
" />
<path d="M56293 26226
L56293 25726
L56245 25797
L56197 25845
L56150 25868
" />
</g><text x="58936.023622" y="27249.960630"
textLength="6869.527559" font-size="666.653543" lengthAdjust="spacingAndGlyphs"
text-anchor="middle" opacity="0">MountingHole_Pad</text>
<g class="stroked-text"><desc>MountingHole_Pad</desc>
<path d="M55650 27226
L55650 26726
L55816 27083
L55983 26726
L55983 27226
" />
<path d="M56293 27226
L56245 27202
L56221 27178
L56197 27130
L56197 26988
L56221 26940
L56245 26916
L56293 26892
L56364 26892
L56412 26916
L56436 26940
L56459 26988
L56459 27130
L56436 27178
L56412 27202
L56364 27226
L56293 27226
" />
<path d="M56888 26892
L56888 27226
" />
<path d="M56674 26892
L56674 27154
L56697 27202
L56745 27226
L56816 27226
L56864 27202
L56888 27178
" />
<path d="M57126 26892
L57126 27226
" />
<path d="M57126 26940
L57150 26916
L57197 26892
L57269 26892
L57316 26916
L57340 26964
L57340 27226
" />
<path d="M57507 26892
L57697 26892
" />
<path d="M57578 26726
L57578 27154
L57602 27202
L57650 27226
L57697 27226
" />
<path d="M57864 27226
L57864 26892
" />
<path d="M57864 26726
L57840 26749
L57864 26773
L57888 26749
L57864 26726
L57864 26773
" />
<path d="M58102 26892
L58102 27226
" />
<path d="M58102 26940
L58126 26916
L58174 26892
L58245 26892
L58293 26916
L58316 26964
L58316 27226
" />
<path d="M58769 26892
L58769 27297
L58745 27345
L58721 27368
L58674 27392
L58602 27392
L58555 27368
" />
<path d="M58769 27202
L58721 27226
L58626 27226
L58578 27202
L58555 27178
L58531 27130
L58531 26988
L58555 26940
L58578 26916
L58626 26892
L58721 26892
L58769 26916
" />
<path d="M59007 27226
L59007 26726
" />
<path d="M59007 26964
L59293 26964
" />
<path d="M59293 27226
L59293 26726
" />
<path d="M59602 27226
L59555 27202
L59531 27178
L59507 27130
L59507 26988
L59531 26940
L59555 26916
L59602 26892
L59674 26892
L59721 26916
L59745 26940
L59769 26988
L59769 27130
L59745 27178
L59721 27202
L59674 27226
L59602 27226
" />
<path d="M60055 27226
L60007 27202
L59983 27154
L59983 26726
" />
<path d="M60436 27202
L60388 27226
L60293 27226
L60245 27202
L60221 27154
L60221 26964
L60245 26916
L60293 26892
L60388 26892
L60436 26916
L60459 26964
L60459 27011
L60221 27059
" />
<path d="M60555 27273
L60936 27273
" />
<path d="M61055 27226
L61055 26726
L61245 26726
L61293 26749
L61316 26773
L61340 26821
L61340 26892
L61316 26940
L61293 26964
L61245 26988
L61055 26988
" />
<path d="M61769 27226
L61769 26964
L61745 26916
L61697 26892
L61602 26892
L61555 26916
" />
<path d="M61769 27202
L61721 27226
L61602 27226
L61555 27202
L61531 27154
L61531 27107
L61555 27059
L61602 27035
L61721 27035
L61769 27011
" />
<path d="M62221 27226
L62221 26726
" />
<path d="M62221 27202
L62174 27226
L62078 27226
L62031 27202
L62007 27178
L61983 27130
L61983 26988
L62007 26940
L62031 26916
L62078 26892
L62174 26892
L62221 26916
" />
</g></g>
</g>
<g style="fill:#006464; fill-opacity:0.0; 
stroke:#006464; stroke-width:60.000000; stroke-opacity:1; 
stroke-linecap:round; stroke-linejoin:round;">
<g >
</g>
<g style="fill:#840000; fill-opacity:0.0; 
stroke:#840000; stroke-width:60.000000; stroke-opacity:1; 
stroke-linecap:round; stroke-linejoin:round;">
</g>
<g style="fill:#FFFFC2; fill-opacity:0.0; 
stroke:#FFFFC2; stroke-width:60.000000; stroke-opacity:1; 
stroke-linecap:round; stroke-linejoin:round;">
</g>
<g style="fill:#FFFFC2; fill-opacity:0.6; 
stroke:#FFFFC2; stroke-width:0.039370; stroke-opacity:1; 
stroke-linecap:round; stroke-linejoin:round;">
<rect x="53500.000000" y="32000.000000" width="8000.000000" height="8000.000000" rx="0.000000" />
</g>
<g style="fill:#840000; fill-opacity:0.6; 
stroke:#840000; stroke-width:0.039370; stroke-opacity:1; 
stroke-linecap:round; stroke-linejoin:round;">
</g>
<g style="fill:#840000; fill-opacity:0.0; 
stroke:#840000; stroke-width:100.000000; stroke-opacity:1; 
stroke-linecap:round; stroke-linejoin:round;">
<rect x="53500.000000" y="32000.000000" width="8000.000000" height="8000.000000" rx="0.000000" />
<rect x="53500.000000" y="32000.000000" width="8000.000000" height="8000.000000" rx="0.000000" />
</g>
<g style="fill:#840000; fill-opacity:0.0; 
stroke:#840000; stroke-width:60.000000; stroke-opacity:1; 
stroke-linecap:round; stroke-linejoin:round;">
<path d="M53500 35000
L51500 35000
" />
</g>
<g style="fill:#006464; fill-opacity:0.0; 
stroke:#006464; stroke-width:60.000000; stroke-opacity:1; 
stroke-linecap:round; stroke-linejoin:round;">
<text x="53900.000000" y="35250.000000"
textLength="1464.763780" font-size="666.653543" lengthAdjust="spacingAndGlyphs"
text-anchor="start" opacity="0">RA0</text>
<g class="stroked-text"><desc>RA0</desc>
<path d="M54334 35226
L54168 34988
" />
<path d="M54049 35226
L54049 34726
L54239 34726
L54287 34750
L54310 34773
L54334 34821
L54334 34892
L54310 34940
L54287 34964
L54239 34988
L54049 34988
" />
<path d="M54525 35083
L54763 35083
" />
<path d="M54477 35226
L54644 34726
L54810 35226
" />
<path d="M55072 34726
L55120 34726
L55168 34750
L55191 34773
L55215 34821
L55239 34916
L55239 35035
L55215 35130
L55191 35178
L55168 35202
L55120 35226
L55072 35226
L55025 35202
L55001 35178
L54977 35130
L54953 35035
L54953 34916
L54977 34821
L55001 34773
L55025 34750
L55072 34726
" />
</g></g>
<g style="fill:#A90000; fill-opacity:0.0; 
stroke:#A90000; stroke-width:60.000000; stroke-opacity:1; 
stroke-linecap:round; stroke-linejoin:round;">
<text x="52500.000000" y="34900.000000"
textLength="536.181102" font-size="666.653543" lengthAdjust="spacingAndGlyphs"
text-anchor="middle" opacity="0">1</text>
<g class="stroked-text"><desc>1</desc>
<path d="M52642 34876
L52357 34876
" />
<path d="M52500 34876
L52500 34376
L52452 34447
L52404 34495
L52357 34519
" />
</g></g>
<g style="fill:#840000; fill-opacity:0.0; 
stroke:#840000; stroke-width:60.000000; stroke-opacity:1; 
stroke-linecap:round; stroke-linejoin:round;">
<path d="M57500 40000
L57500 42000
" />
</g>
<g style="fill:#006464; fill-opacity:0.0; 
stroke:#006464; stroke-width:60.000000; stroke-opacity:1; 
stroke-linecap:round; stroke-linejoin:round;">
<g transform="rotate(-90.000000 57500.000000 39600.000000)">
<text x="57500.000000" y="39850.000000"
textLength="1440.944882" font-size="666.653543" lengthAdjust="spacingAndGlyphs"
text-anchor="start" opacity="0">VSS</text>
</g>
<g class="stroked-text"><desc>VSS</desc>
<path d="M57226 39522
L57726 39355
L57226 39189
" />
<path d="M57702 39046
L57726 38974
L57726 38855
L57702 38808
L57678 38784
L57630 38760
L57583 38760
L57535 38784
L57511 38808
L57488 38855
L57464 38950
L57440 38998
L57416 39022
L57369 39046
L57321 39046
L57273 39022
L57250 38998
L57226 38950
L57226 38831
L57250 38760
" />
<path d="M57702 38570
L57726 38498
L57726 38379
L57702 38331
L57678 38308
L57630 38284
L57583 38284
L57535 38308
L57511 38331
L57488 38379
L57464 38474
L57440 38522
L57416 38546
L57369 38570
L57321 38570
L57273 38546
L57250 38522
L57226 38474
L57226 38355
L57250 38284
" />
</g></g>
<g style="fill:#A90000; fill-opacity:0.0; 
stroke:#A90000; stroke-width:60.000000; stroke-opacity:1; 
stroke-linecap:round; stroke-linejoin:round;">
<g transform="rotate(-90.000000 57400.000000 41000.000000)">
<text x="57400.000000" y="41000.000000"
textLength="536.181102" font-size="666.653543" lengthAdjust="spacingAndGlyphs"
text-anchor="middle" opacity="0">2</text>
</g>
<g class="stroked-text"><desc>2</desc>
<path d="M56923 41142
L56900 41119
L56876 41071
L56876 40952
L56900 40904
L56923 40880
L56971 40857
L57019 40857
L57090 40880
L57376 41166
L57376 40857
" />
</g></g>
<g style="fill:#840000; fill-opacity:0.0; 
stroke:#840000; stroke-width:60.000000; stroke-opacity:1; 
stroke-linecap:round; stroke-linejoin:round;">
<path d="M53500 37000
L51500 37000
" />
</g>
<g style="fill:#006464; fill-opacity:0.0; 
stroke:#006464; stroke-width:60.000000; stroke-opacity:1; 
stroke-linecap:round; stroke-linejoin:round;">
<text x="53900.000000" y="37250.000000"
textLength="1464.763780" font-size="666.653543" lengthAdjust="spacingAndGlyphs"
text-anchor="start" opacity="0">RA1</text>
<g class="stroked-text"><desc>RA1</desc>
<path d="M54334 37226
L54168 36988
" />
<path d="M54049 37226
L54049 36726
L54239 36726
L54287 36750
L54310 36773
L54334 36821
L54334 36892
L54310 36940
L54287 36964
L54239 36988
L54049 36988
" />
<path d="M54525 37083
L54763 37083
" />
<path d="M54477 37226
L54644 36726
L54810 37226
" />
<path d="M55239 37226
L54953 37226
" />
<path d="M55096 37226
L55096 36726
L55049 36797
L55001 36845
L54953 36869
" />
</g></g>
<g style="fill:#A90000; fill-opacity:0.0; 
stroke:#A90000; stroke-width:60.000000; stroke-opacity:1; 
stroke-linecap:round; stroke-linejoin:round;">
<text x="52500.000000" y="36900.000000"
textLength="536.181102" font-size="666.653543" lengthAdjust="spacingAndGlyphs"
text-anchor="middle" opacity="0">3</text>
<g class="stroked-text"><desc>3</desc>
<path d="M52333 36376
L52642 36376
L52476 36566
L52547 36566
L52595 36590
L52619 36614
L52642 36661
L52642 36780
L52619 36828
L52595 36852
L52547 36876
L52404 36876
L52357 36852
L52333 36828
" />
</g></g>
<g style="fill:#840000; fill-opacity:0.0; 
stroke:#840000; stroke-width:60.000000; stroke-opacity:1; 
stroke-linecap:round; stroke-linejoin:round;">
<path d="M61500 37000
L63500 37000
" />
</g>
<g style="fill:#006464; fill-opacity:0.0; 
stroke:#006464; stroke-width:60.000000; stroke-opacity:1; 
stroke-linecap:round; stroke-linejoin:round;">
<text x="61100.000000" y="37250.000000"
textLength="1464.763780" font-size="666.653543" lengthAdjust="spacingAndGlyphs"
text-anchor="end" opacity="0">RA2</text>
<g class="stroked-text"><desc>RA2</desc>
<path d="M60070 37226
L59903 36988
" />
<path d="M59784 37226
L59784 36726
L59974 36726
L60022 36750
L60046 36773
L60070 36821
L60070 36892
L60046 36940
L60022 36964
L59974 36988
L59784 36988
" />
<path d="M60260 37083
L60498 37083
" />
<path d="M60212 37226
L60379 36726
L60546 37226
" />
<path d="M60689 36773
L60712 36750
L60760 36726
L60879 36726
L60927 36750
L60950 36773
L60974 36821
L60974 36869
L60950 36940
L60665 37226
L60974 37226
" />
</g></g>
<g style="fill:#A90000; fill-opacity:0.0; 
stroke:#A90000; stroke-width:60.000000; stroke-opacity:1; 
stroke-linecap:round; stroke-linejoin:round;">
<text x="62500.000000" y="36900.000000"
textLength="536.181102" font-size="666.653543" lengthAdjust="spacingAndGlyphs"
text-anchor="middle" opacity="0">4</text>
<g class="stroked-text"><desc>4</desc>
<path d="M62595 36542
L62595 36876
" />
<path d="M62476 36352
L62357 36709
L62666 36709
" />
</g></g>
<g style="fill:#840000; fill-opacity:0.0; 
stroke:#840000; stroke-width:60.000000; stroke-opacity:1; 
stroke-linecap:round; stroke-linejoin:round;">
<path d="M57500 32000
L57500 30000
" />
</g>
<g style="fill:#006464; fill-opacity:0.0; 
stroke:#006464; stroke-width:60.000000; stroke-opacity:1; 
stroke-linecap:round; stroke-linejoin:round;">
<g transform="rotate(-90.000000 57500.000000 32400.000000)">
<text x="57500.000000" y="32650.000000"
textLength="1488.582677" font-size="666.653543" lengthAdjust="spacingAndGlyphs"
text-anchor="end" opacity="0">VDD</text>
</g>
<g class="stroked-text"><desc>VDD</desc>
<path d="M57226 33810
L57726 33644
L57226 33477
" />
<path d="M57726 33310
L57226 33310
L57226 33191
L57250 33120
L57297 33072
L57345 33049
L57440 33025
L57511 33025
L57607 33049
L57654 33072
L57702 33120
L57726 33191
L57726 33310
" />
<path d="M57726 32810
L57226 32810
L57226 32691
L57250 32620
L57297 32572
L57345 32549
L57440 32525
L57511 32525
L57607 32549
L57654 32572
L57702 32620
L57726 32691
L57726 32810
" />
</g></g>
<g style="fill:#A90000; fill-opacity:0.0; 
stroke:#A90000; stroke-width:60.000000; stroke-opacity:1; 
stroke-linecap:round; stroke-linejoin:round;">
<g transform="rotate(-90.000000 57400.000000 31000.000000)">
<text x="57400.000000" y="31000.000000"
textLength="536.181102" font-size="666.653543" lengthAdjust="spacingAndGlyphs"
text-anchor="middle" opacity="0">5</text>
</g>
<g class="stroked-text"><desc>5</desc>
<path d="M56876 30880
L56876 31119
L57114 31142
L57090 31119
L57066 31071
L57066 30952
L57090 30904
L57114 30880
L57161 30857
L57280 30857
L57328 30880
L57352 30904
L57376 30952
L57376 31071
L57352 31119
L57328 31142
" />
</g></g>
<g style="fill:#840000; fill-opacity:0.0; 
stroke:#840000; stroke-width:60.000000; stroke-opacity:1; 
stroke-linecap:round; stroke-linejoin:round;">
<path d="M61500 35000
L63500 35000
" />
</g>
<g style="fill:#006464; fill-opacity:0.0; 
stroke:#006464; stroke-width:60.000000; stroke-opacity:1; 
stroke-linecap:round; stroke-linejoin:round;">
<text x="61100.000000" y="35250.000000"
textLength="1464.763780" font-size="666.653543" lengthAdjust="spacingAndGlyphs"
text-anchor="end" opacity="0">RA3</text>
<g class="stroked-text"><desc>RA3</desc>
<path d="M60070 35226
L59903 34988
" />
<path d="M59784 35226
L59784 34726
L59974 34726
L60022 34750
L60046 34773
L60070 34821
L60070 34892
L60046 34940
L60022 34964
L59974 34988
L59784 34988
" />
<path d="M60260 35083
L60498 35083
" />
<path d="M60212 35226
L60379 34726
L60546 35226
" />
<path d="M60665 34726
L60974 34726
L60808 34916
L60879 34916
L60927 34940
L60950 34964
L60974 35011
L60974 35130
L60950 35178
L60927 35202
L60879 35226
L60736 35226
L60689 35202
L60665 35178
" />
</g></g>
<g style="fill:#A90000; fill-opacity:0.0; 
stroke:#A90000; stroke-width:60.000000; stroke-opacity:1; 
stroke-linecap:round; stroke-linejoin:round;">
<text x="62500.000000" y="34900.000000"
textLength="536.181102" font-size="666.653543" lengthAdjust="spacingAndGlyphs"
text-anchor="middle" opacity="0">6</text>
<g class="stroked-text"><desc>6</desc>
<path d="M62595 34376
L62500 34376
L62452 34400
L62428 34423
L62380 34495
L62357 34590
L62357 34780
L62380 34828
L62404 34852
L62452 34876
L62547 34876
L62595 34852
L62619 34828
L62642 34780
L62642 34661
L62619 34614
L62595 34590
L62547 34566
L62452 34566
L62404 34590
L62380 34614
L62357 34661
" />
</g></g>
<g style="fill:#006464; fill-opacity:0.0; 
stroke:#006464; stroke-width:60.000000; stroke-opacity:1; 
stroke-linecap:round; stroke-linejoin:round;">
<text x="58826.299213" y="30250.000000"
textLength="1060.000000" font-size="666.653543" lengthAdjust="spacingAndGlyphs"
text-anchor="middle" opacity="0">U1</text>
<g class="stroked-text"><desc>U1</desc>
<path d="M58445 29726
L58445 30130
L58469 30178
L58492 30202
L58540 30226
L58635 30226
L58683 30202
L58707 30178
L58731 30130
L58731 29726
" />
<path d="M59231 30226
L58945 30226
" />
<path d="M59088 30226
L59088 29726
L59040 29797
L58992 29845
L58945 29869
" />
</g><text x="61231.062992" y="31250.000000"
textLength="5869.527559" font-size="666.653543" lengthAdjust="spacingAndGlyphs"
text-anchor="middle" opacity="0">PIC10F320-IOT</text>
<g class="stroked-text"><desc>PIC10F320-IOT</desc>
<path d="M58445 31226
L58445 30726
L58635 30726
L58683 30750
L58707 30773
L58731 30821
L58731 30892
L58707 30940
L58683 30964
L58635 30988
L58445 30988
" />
<path d="M58945 31226
L58945 30726
" />
<path d="M59469 31178
L59445 31202
L59373 31226
L59326 31226
L59254 31202
L59207 31154
L59183 31107
L59159 31011
L59159 30940
L59183 30845
L59207 30797
L59254 30750
L59326 30726
L59373 30726
L59445 30750
L59469 30773
" />
<path d="M59945 31226
L59659 31226
" />
<path d="M59802 31226
L59802 30726
L59754 30797
L59707 30845
L59659 30869
" />
<path d="M60254 30726
L60302 30726
L60350 30750
L60373 30773
L60397 30821
L60421 30916
L60421 31035
L60397 31130
L60373 31178
L60350 31202
L60302 31226
L60254 31226
L60207 31202
L60183 31178
L60159 31130
L60135 31035
L60135 30916
L60159 30821
L60183 30773
L60207 30750
L60254 30726
" />
<path d="M60802 30964
L60635 30964
" />
<path d="M60635 31226
L60635 30726
L60873 30726
" />
<path d="M61016 30726
L61326 30726
L61159 30916
L61231 30916
L61278 30940
L61302 30964
L61326 31011
L61326 31130
L61302 31178
L61278 31202
L61231 31226
L61088 31226
L61040 31202
L61016 31178
" />
<path d="M61516 30773
L61540 30750
L61588 30726
L61707 30726
L61754 30750
L61778 30773
L61802 30821
L61802 30869
L61778 30940
L61492 31226
L61802 31226
" />
<path d="M62112 30726
L62159 30726
L62207 30750
L62231 30773
L62254 30821
L62278 30916
L62278 31035
L62254 31130
L62231 31178
L62207 31202
L62159 31226
L62112 31226
L62064 31202
L62040 31178
L62016 31130
L61992 31035
L61992 30916
L62016 30821
L62040 30773
L62064 30750
L62112 30726
" />
<path d="M62492 31035
L62873 31035
" />
<path d="M63112 31226
L63112 30726
" />
<path d="M63445 30726
L63540 30726
L63588 30750
L63635 30797
L63659 30892
L63659 31059
L63635 31154
L63588 31202
L63540 31226
L63445 31226
L63397 31202
L63350 31154
L63326 31059
L63326 30892
L63350 30797
L63397 30750
L63445 30726
" />
<path d="M63802 30726
L64088 30726
" />
<path d="M63945 31226
L63945 30726
" />
</g></g>
</g>
<g style="fill:#006464; fill-opacity:0.0; 
stroke:#006464; stroke-width:60.000000; stroke-opacity:1; 
stroke-linecap:round; stroke-linejoin:round;">
<g >
</g>
<g style="fill:#840000; fill-opacity:0.0; 
stroke:#840000; stroke-width:60.000000; stroke-opacity:1; 
stroke-linecap:round; stroke-linejoin:round;">
<path style="fill:#840000; fill-opacity:0.0; 
stroke:#840000; stroke-width:60.000000; stroke-opacity:1; 
stroke-linecap:round; stroke-linejoin:round;fill:none"
d="M 57500.000000,43500.000000
57500.000000,44500.000000
" /> 
</g>
<g style="fill:#840000; fill-opacity:1.0; 
stroke:#840000; stroke-width:60.000000; stroke-opacity:1; 
stroke-linecap:round; stroke-linejoin:round;">
<path style="fill:#840000; fill-opacity:1.0; 
stroke:#840000; stroke-width:60.000000; stroke-opacity:1; 
stroke-linecap:round; stroke-linejoin:round;fill-rule:evenodd;"
d="M 57200.000000,44000.000000
57800.000000,44000.000000
57500.000000,44500.000000
Z" /> 
</g>
<g style="fill:#006464; fill-opacity:0.0; 
stroke:#006464; stroke-width:60.000000; stroke-opacity:1; 
stroke-linecap:round; stroke-linejoin:round;">
<text x="57500.000000" y="45749.960630"
textLength="1440.944882" font-size="666.653543" lengthAdjust="spacingAndGlyphs"
text-anchor="middle" opacity="0">VSS</text>
<g class="stroked-text"><desc>VSS</desc>
<path d="M56857 45226
L57023 45726
L57190 45226
" />
<path d="M57333 45702
L57404 45726
L57523 45726
L57571 45702
L57595 45678
L57619 45630
L57619 45583
L57595 45535
L57571 45511
L57523 45488
L57428 45464
L57380 45440
L57357 45416
L57333 45368
L57333 45321
L57357 45273
L57380 45249
L57428 45226
L57547 45226
L57619 45249
" />
<path d="M57809 45702
L57880 45726
L58000 45726
L58047 45702
L58071 45678
L58095 45630
L58095 45583
L58071 45535
L58047 45511
L58000 45488
L57904 45464
L57857 45440
L57833 45416
L57809 45368
L57809 45321
L57833 45273
L57857 45249
L57904 45226
L58023 45226
L58095 45249
" />
</g></g>
</g>
<g style="fill:#006464; fill-opacity:0.0; 
stroke:#006464; stroke-width:60.000000; stroke-opacity:1; 
stroke-linecap:round; stroke-linejoin:round;">
<g >
</g>
<g style="fill:#840000; fill-opacity:0.0; 
stroke:#840000; stroke-width:60.000000; stroke-opacity:1; 
stroke-linecap:round; stroke-linejoin:round;">
</g>
<g style="fill:#840000; fill-opacity:0.0; 
stroke:#840000; stroke-width:130.000000; stroke-opacity:1; 
stroke-linecap:round; stroke-linejoin:round;">
<path style="fill:#840000; fill-opacity:0.0; 
stroke:#840000; stroke-width:130.000000; stroke-opacity:1; 
stroke-linecap:round; stroke-linejoin:round;fill:none"
d="M 47400.000000,36200.000000
48600.000000,36200.000000
" /> 
</g>
<g style="fill:#840000; fill-opacity:0.0; 
stroke:#840000; stroke-width:120.000000; stroke-opacity:1; 
stroke-linecap:round; stroke-linejoin:round;">
<path style="fill:#840000; fill-opacity:0.0; 
stroke:#840000; stroke-width:120.000000; stroke-opacity:1; 
stroke-linecap:round; stroke-linejoin:round;fill:none"
d="M 47400.000000,35800.000000
48600.000000,35800.000000
" /> 
</g>
<g style="fill:#840000; fill-opacity:0.0; 
stroke:#840000; stroke-width:60.000000; stroke-opacity:1; 
stroke-linecap:round; stroke-linejoin:round;">
<path d="M48000 35800
L48000 35000
" />
<path d="M48000 36200
L48000 37000
" />
</g>
<g style="fill:#006464; fill-opacity:0.0; 
stroke:#006464; stroke-width:60.000000; stroke-opacity:1; 
stroke-linecap:round; stroke-linejoin:round;">
<text x="49519.330709" y="35752.440945"
textLength="1036.181102" font-size="666.653543" lengthAdjust="spacingAndGlyphs"
text-anchor="middle" opacity="0">C1</text>
<g class="stroked-text"><desc>C1</desc>
<path d="M49435 35680
L49412 35704
L49340 35728
L49293 35728
L49221 35704
L49174 35657
L49150 35609
L49126 35514
L49126 35442
L49150 35347
L49174 35300
L49221 35252
L49293 35228
L49340 35228
L49412 35252
L49435 35276
" />
<path d="M49912 35728
L49626 35728
" />
<path d="M49769 35728
L49769 35228
L49721 35300
L49674 35347
L49626 35371
" />
</g><text x="50186.023622" y="36752.440945"
textLength="2369.527559" font-size="666.653543" lengthAdjust="spacingAndGlyphs"
text-anchor="middle" opacity="0">100nF</text>
<g class="stroked-text"><desc>100nF</desc>
<path d="M49412 36728
L49126 36728
" />
<path d="M49269 36728
L49269 36228
L49221 36300
L49174 36347
L49126 36371
" />
<path d="M49721 36228
L49769 36228
L49816 36252
L49840 36276
L49864 36323
L49888 36419
L49888 36538
L49864 36633
L49840 36680
L49816 36704
L49769 36728
L49721 36728
L49674 36704
L49650 36680
L49626 36633
L49602 36538
L49602 36419
L49626 36323
L49650 36276
L49674 36252
L49721 36228
" />
<path d="M50197 36228
L50245 36228
L50293 36252
L50316 36276
L50340 36323
L50364 36419
L50364 36538
L50340 36633
L50316 36680
L50293 36704
L50245 36728
L50197 36728
L50150 36704
L50126 36680
L50102 36633
L50078 36538
L50078 36419
L50102 36323
L50126 36276
L50150 36252
L50197 36228
" />
<path d="M50578 36395
L50578 36728
" />
<path d="M50578 36442
L50602 36419
L50650 36395
L50721 36395
L50769 36419
L50793 36466
L50793 36728
" />
<path d="M51197 36466
L51031 36466
" />
<path d="M51031 36728
L51031 36228
L51269 36228
" />
</g></g>
</g>
<g style="fill:#006464; fill-opacity:0.0; 
stroke:#006464; stroke-width:60.000000; stroke-opacity:1; 
stroke-linecap:round; stroke-linejoin:round;">
<g >
</g>
<g style="fill:#840000; fill-opacity:0.0; 
stroke:#840000; stroke-width:60.000000; stroke-opacity:1; 
stroke-linecap:round; stroke-linejoin:round;">
</g>
<g style="fill:#840000; fill-opacity:0.0; 
stroke:#840000; stroke-width:80.000000; stroke-opacity:1; 
stroke-linecap:round; stroke-linejoin:round;">
<rect x="63300.000000" y="29200.000000" width="1400.000000" height="600.000000" rx="0.000000" />
</g>
<g style="fill:#840000; fill-opacity:0.0; 
stroke:#840000; stroke-width:60.000000; stroke-opacity:1; 
stroke-linecap:round; stroke-linejoin:round;">
<path d="M63300 29500
L63000 29500
" />
<path d="M64700 29500
L65000 29500
" />
</g>
<g style="fill:#006464; fill-opacity:0.0; 
stroke:#006464; stroke-width:60.000000; stroke-opacity:1; 
stroke-linecap:round; stroke-linejoin:round;">
<text x="63999.960630" y="27249.960630"
textLength="1036.181102" font-size="666.653543" lengthAdjust="spacingAndGlyphs"
text-anchor="middle" opacity="0">R1</text>
<g class="stroked-text"><desc>R1</desc>
<path d="M63916 27226
L63749 26988
" />
<path d="M63630 27226
L63630 26726
L63821 26726
L63868 26749
L63892 26773
L63916 26821
L63916 26892
L63892 26940
L63868 26964
L63821 26988
L63630 26988
" />
<path d="M64392 27226
L64107 27226
" />
<path d="M64249 27226
L64249 26726
L64202 26797
L64154 26845
L64107 26868
" />
</g><text x="64000.000000" y="28249.960630"
textLength="1988.582677" font-size="666.653543" lengthAdjust="spacingAndGlyphs"
text-anchor="middle" opacity="0">560R</text>
<g class="stroked-text"><desc>560R</desc>
<path d="M63392 27726
L63154 27726
L63130 27964
L63154 27940
L63202 27916
L63321 27916
L63369 27940
L63392 27964
L63416 28011
L63416 28130
L63392 28178
L63369 28202
L63321 28226
L63202 28226
L63154 28202
L63130 28178
" />
<path d="M63845 27726
L63750 27726
L63702 27749
L63678 27773
L63630 27845
L63607 27940
L63607 28130
L63630 28178
L63654 28202
L63702 28226
L63797 28226
L63845 28202
L63869 28178
L63892 28130
L63892 28011
L63869 27964
L63845 27940
L63797 27916
L63702 27916
L63654 27940
L63630 27964
L63607 28011
" />
<path d="M64202 27726
L64250 27726
L64297 27749
L64321 27773
L64345 27821
L64369 27916
L64369 28035
L64345 28130
L64321 28178
L64297 28202
L64250 28226
L64202 28226
L64154 28202
L64130 28178
L64107 28130
L64083 28035
L64083 27916
L64107 27821
L64130 27773
L64154 27749
L64202 27726
" />
<path d="M64869 28226
L64702 27988
" />
<path d="M64583 28226
L64583 27726
L64773 27726
L64821 27749
L64845 27773
L64869 27821
L64869 27892
L64845 27940
L64821 27964
L64773 27988
L64583 27988
" />
</g></g>
</g>
<g style="fill:#006464; fill-opacity:0.0; 
stroke:#006464; stroke-width:60.000000; stroke-opacity:1; 
stroke-linecap:round; stroke-linejoin:round;">
<g >
</g>
<g style="fill:#840000; fill-opacity:0.0; 
stroke:#840000; stroke-width:60.000000; stroke-opacity:1; 
stroke-linecap:round; stroke-linejoin:round;">
</g>
<g style="fill:#840000; fill-opacity:0.0; 
stroke:#840000; stroke-width:100.000000; stroke-opacity:1; 
stroke-linecap:round; stroke-linejoin:round;">
<path style="fill:#840000; fill-opacity:0.0; 
stroke:#840000; stroke-width:100.000000; stroke-opacity:1; 
stroke-linecap:round; stroke-linejoin:round;fill:none"
d="M 66900.000000,33300.000000
66100.000000,33300.000000
" /> 
</g>
<g style="fill:#840000; fill-opacity:0.0; 
stroke:#840000; stroke-width:60.000000; stroke-opacity:1; 
stroke-linecap:round; stroke-linejoin:round;">
<path style="fill:#840000; fill-opacity:0.0; 
stroke:#840000; stroke-width:60.000000; stroke-opacity:1; 
stroke-linecap:round; stroke-linejoin:round;fill:none"
d="M 66500.000000,32600.000000
66500.000000,33300.000000
" /> 
</g>
<g style="fill:#840000; fill-opacity:0.0; 
stroke:#840000; stroke-width:100.000000; stroke-opacity:1; 
stroke-linecap:round; stroke-linejoin:round;">
<path style="fill:#840000; fill-opacity:0.0; 
stroke:#840000; stroke-width:100.000000; stroke-opacity:1; 
stroke-linecap:round; stroke-linejoin:round;fill:none"
d="M 66900.000000,32700.000000
66500.000000,33300.000000
66100.000000,32700.000000
Z" /> 
</g>
<g style="fill:#840000; fill-opacity:0.0; 
stroke:#840000; stroke-width:60.000000; stroke-opacity:1; 
stroke-linecap:round; stroke-linejoin:round;">
<path style="fill:#840000; fill-opacity:0.0; 
stroke:#840000; stroke-width:60.000000; stroke-opacity:1; 
stroke-linecap:round; stroke-linejoin:round;fill:none"
d="M 66200.000000,33000.000000
66000.000000,33200.000000
66000.000000,33100.000000
66000.000000,33200.000000
66100.000000,33200.000000
" /> 
<path style="fill:#840000; fill-opacity:0.0; 
stroke:#840000; stroke-width:60.000000; stroke-opacity:1; 
stroke-linecap:round; stroke-linejoin:round;fill:none"
d="M 66000.000000,32800.000000
65800.000000,33000.000000
65800.000000,32900.000000
65800.000000,33000.000000
65900.000000,33000.000000
" /> 
<path d="M66500 33300
L66500 34000
" />
<path d="M66500 32700
L66500 32000
" />
</g>
<g style="fill:#006464; fill-opacity:0.0; 
stroke:#006464; stroke-width:60.000000; stroke-opacity:1; 
stroke-linecap:round; stroke-linejoin:round;">
<text x="68019.330709" y="32724.921260"
textLength="1036.181102" font-size="666.653543" lengthAdjust="spacingAndGlyphs"
text-anchor="middle" opacity="0">D1</text>
<g class="stroked-text"><desc>D1</desc>
<path d="M67650 32701
L67650 32201
L67769 32201
L67840 32224
L67888 32272
L67912 32320
L67935 32415
L67935 32486
L67912 32582
L67888 32629
L67840 32677
L67769 32701
L67650 32701
" />
<path d="M68412 32701
L68126 32701
" />
<path d="M68269 32701
L68269 32201
L68221 32272
L68174 32320
L68126 32343
" />
</g><text x="68924.094488" y="33724.921260"
textLength="2845.708661" font-size="666.653543" lengthAdjust="spacingAndGlyphs"
text-anchor="middle" opacity="0">LED_rot</text>
<g class="stroked-text"><desc>LED_rot</desc>
<path d="M67888 33701
L67650 33701
L67650 33201
" />
<path d="M68055 33439
L68221 33439
" />
<path d="M68293 33701
L68055 33701
L68055 33201
L68293 33201
" />
<path d="M68507 33701
L68507 33201
L68626 33201
L68697 33224
L68745 33272
L68769 33320
L68793 33415
L68793 33486
L68769 33582
L68745 33629
L68697 33677
L68626 33701
L68507 33701
" />
<path d="M68888 33748
L69269 33748
" />
<path d="M69388 33701
L69388 33367
" />
<path d="M69388 33462
L69412 33415
L69435 33391
L69483 33367
L69531 33367
" />
<path d="M69769 33701
L69721 33677
L69697 33653
L69674 33605
L69674 33462
L69697 33415
L69721 33391
L69769 33367
L69840 33367
L69888 33391
L69912 33415
L69935 33462
L69935 33605
L69912 33653
L69888 33677
L69840 33701
L69769 33701
" />
<path d="M70078 33367
L70269 33367
" />
<path d="M70150 33201
L70150 33629
L70174 33677
L70221 33701
L70269 33701
" />
</g></g>
</g>
<g style="fill:#006464; fill-opacity:0.0; 
stroke:#006464; stroke-width:60.000000; stroke-opacity:1; 
stroke-linecap:round; stroke-linejoin:round;">
<g >
</g>
<g style="fill:#840000; fill-opacity:0.0; 
stroke:#840000; stroke-width:60.000000; stroke-opacity:1; 
stroke-linecap:round; stroke-linejoin:round;">
<path style="fill:#840000; fill-opacity:0.0; 
stroke:#840000; stroke-width:60.000000; stroke-opacity:1; 
stroke-linecap:round; stroke-linejoin:round;fill:none"
d="M 57200.000000,27000.000000
57500.000000,26500.000000
" /> 
<path style="fill:#840000; fill-opacity:0.0; 
stroke:#840000; stroke-width:60.000000; stroke-opacity:1; 
stroke-linecap:round; stroke-linejoin:round;fill:none"
d="M 57500.000000,27500.000000
57500.000000,26500.000000
" /> 
<path style="fill:#840000; fill-opacity:0.0; 
stroke:#840000; stroke-width:60.000000; stroke-opacity:1; 
stroke-linecap:round; stroke-linejoin:round;fill:none"
d="M 57500.000000,26500.000000
57800.000000,27000.000000
" /> 
</g>
<g style="fill:#006464; fill-opacity:0.0; 
stroke:#006464; stroke-width:60.000000; stroke-opacity:1; 
stroke-linecap:round; stroke-linejoin:round;">
<text x="57500.000000" y="25750.000000"
textLength="1488.582677" font-size="666.653543" lengthAdjust="spacingAndGlyphs"
text-anchor="middle" opacity="0">VDD</text>
<g class="stroked-text"><desc>VDD</desc>
<path d="M56833 25226
L57000 25726
L57166 25226
" />
<path d="M57333 25726
L57333 25226
L57452 25226
L57523 25250
L57571 25297
L57595 25345
L57619 25440
L57619 25511
L57595 25607
L57571 25654
L57523 25702
L57452 25726
L57333 25726
" />
<path d="M57833 25726
L57833 25226
L57952 25226
L58023 25250
L58071 25297
L58095 25345
L58119 25440
L58119 25511
L58095 25607
L58071 25654
L58023 25702
L57952 25726
L57833 25726
" />
</g></g>
</g>
<g style="fill:#006464; fill-opacity:0.0; 
stroke:#006464; stroke-width:60.000000; stroke-opacity:1; 
stroke-linecap:round; stroke-linejoin:round;">
</g>
<g style="fill:#009600; fill-opacity:0.0; 
stroke:#009600; stroke-width:60.000000; stroke-opacity:1; 
stroke-linecap:round; stroke-linejoin:round;">
<path d="M57500 29500
L54500 29500
" />
<path d="M57500 29500
L63000 29500
" />
<path d="M57500 42500
L61000 42500
" />
<path d="M57500 29500
L57500 30000
" />
<path d="M66500 35000
L63500 35000
" />
<path d="M66500 34000
L66500 35000
" />
<path d="M66500 29500
L66500 32000
" />
<path d="M65000 29500
L66500 29500
" />
<path d="M54500 29500
L48000 29500
" />
<path d="M48000 29500
L48000 35000
" />
<path d="M57500 42500
L57500 43500
" />
<path d="M57500 42000
L57500 42500
" />
<path d="M57500 42500
L48000 42500
" />
<path d="M48000 42500
L48000 37000
" />
<path d="M57500 27500
L57500 29500
" />
<path d="M54500 28000
L54500 29500
" />
</g>
<g style="fill:#009600; fill-opacity:1.0; 
stroke:#009600; stroke-width:60.000000; stroke-opacity:1; 
stroke-linecap:round; stroke-linejoin:round;">
<circle cx="54500.000000" cy="29500.000000" r="180.000000" /> 
<circle cx="57500.000000" cy="29500.000000" r="180.000000" /> 
<circle cx="57500.000000" cy="42500.000000" r="180.000000" /> 
</g> 
</svg>
