%TF.GenerationSoftware,KiCad,Pcbnew,6.0.1-79c1e3a40b~116~ubuntu20.04.1*%
%TF.CreationDate,2022-01-27T12:48:57+01:00*%
%TF.ProjectId,picblinker,70696362-6c69-46e6-9b65-722e6b696361,rev?*%
%TF.SameCoordinates,Original*%
%TF.FileFunction,Legend,Top*%
%TF.FilePolarity,Positive*%
%FSLAX46Y46*%
G04 Gerber Fmt 4.6, Leading zero omitted, Abs format (unit mm)*
G04 Created by KiCad (PCBNEW 6.0.1-79c1e3a40b~116~ubuntu20.04.1) date 2022-01-27 12:48:57*
%MOMM*%
%LPD*%
G01*
G04 APERTURE LIST*
%ADD10C,0.150000*%
%ADD11C,0.120000*%
G04 APERTURE END LIST*
D10*
%TO.C,R2*%
X153533333Y-96982380D02*
X153200000Y-96506190D01*
X152961904Y-96982380D02*
X152961904Y-95982380D01*
X153342857Y-95982380D01*
X153438095Y-96030000D01*
X153485714Y-96077619D01*
X153533333Y-96172857D01*
X153533333Y-96315714D01*
X153485714Y-96410952D01*
X153438095Y-96458571D01*
X153342857Y-96506190D01*
X152961904Y-96506190D01*
X153914285Y-96077619D02*
X153961904Y-96030000D01*
X154057142Y-95982380D01*
X154295238Y-95982380D01*
X154390476Y-96030000D01*
X154438095Y-96077619D01*
X154485714Y-96172857D01*
X154485714Y-96268095D01*
X154438095Y-96410952D01*
X153866666Y-96982380D01*
X154485714Y-96982380D01*
%TO.C,H2*%
X152338095Y-96352380D02*
X152338095Y-95352380D01*
X152338095Y-95828571D02*
X152909523Y-95828571D01*
X152909523Y-96352380D02*
X152909523Y-95352380D01*
X153338095Y-95447619D02*
X153385714Y-95400000D01*
X153480952Y-95352380D01*
X153719047Y-95352380D01*
X153814285Y-95400000D01*
X153861904Y-95447619D01*
X153909523Y-95542857D01*
X153909523Y-95638095D01*
X153861904Y-95780952D01*
X153290476Y-96352380D01*
X153909523Y-96352380D01*
%TO.C,H1*%
X146138095Y-96452380D02*
X146138095Y-95452380D01*
X146138095Y-95928571D02*
X146709523Y-95928571D01*
X146709523Y-96452380D02*
X146709523Y-95452380D01*
X147709523Y-96452380D02*
X147138095Y-96452380D01*
X147423809Y-96452380D02*
X147423809Y-95452380D01*
X147328571Y-95595238D01*
X147233333Y-95690476D01*
X147138095Y-95738095D01*
%TO.C,R1*%
X145933333Y-94122380D02*
X145600000Y-93646190D01*
X145361904Y-94122380D02*
X145361904Y-93122380D01*
X145742857Y-93122380D01*
X145838095Y-93170000D01*
X145885714Y-93217619D01*
X145933333Y-93312857D01*
X145933333Y-93455714D01*
X145885714Y-93550952D01*
X145838095Y-93598571D01*
X145742857Y-93646190D01*
X145361904Y-93646190D01*
X146885714Y-94122380D02*
X146314285Y-94122380D01*
X146600000Y-94122380D02*
X146600000Y-93122380D01*
X146504761Y-93265238D01*
X146409523Y-93360476D01*
X146314285Y-93408095D01*
%TO.C,U1*%
X149138095Y-93052380D02*
X149138095Y-93861904D01*
X149185714Y-93957142D01*
X149233333Y-94004761D01*
X149328571Y-94052380D01*
X149519047Y-94052380D01*
X149614285Y-94004761D01*
X149661904Y-93957142D01*
X149709523Y-93861904D01*
X149709523Y-93052380D01*
X150709523Y-94052380D02*
X150138095Y-94052380D01*
X150423809Y-94052380D02*
X150423809Y-93052380D01*
X150328571Y-93195238D01*
X150233333Y-93290476D01*
X150138095Y-93338095D01*
%TO.C,C1*%
X149833333Y-100287142D02*
X149785714Y-100334761D01*
X149642857Y-100382380D01*
X149547619Y-100382380D01*
X149404761Y-100334761D01*
X149309523Y-100239523D01*
X149261904Y-100144285D01*
X149214285Y-99953809D01*
X149214285Y-99810952D01*
X149261904Y-99620476D01*
X149309523Y-99525238D01*
X149404761Y-99430000D01*
X149547619Y-99382380D01*
X149642857Y-99382380D01*
X149785714Y-99430000D01*
X149833333Y-99477619D01*
X150785714Y-100382380D02*
X150214285Y-100382380D01*
X150500000Y-100382380D02*
X150500000Y-99382380D01*
X150404761Y-99525238D01*
X150309523Y-99620476D01*
X150214285Y-99668095D01*
%TO.C,D1*%
X145361904Y-98582380D02*
X145361904Y-97582380D01*
X145600000Y-97582380D01*
X145742857Y-97630000D01*
X145838095Y-97725238D01*
X145885714Y-97820476D01*
X145933333Y-98010952D01*
X145933333Y-98153809D01*
X145885714Y-98344285D01*
X145838095Y-98439523D01*
X145742857Y-98534761D01*
X145600000Y-98582380D01*
X145361904Y-98582380D01*
X146885714Y-98582380D02*
X146314285Y-98582380D01*
X146600000Y-98582380D02*
X146600000Y-97582380D01*
X146504761Y-97725238D01*
X146409523Y-97820476D01*
X146314285Y-97868095D01*
%TO.C,D2*%
X152961904Y-98482380D02*
X152961904Y-97482380D01*
X153200000Y-97482380D01*
X153342857Y-97530000D01*
X153438095Y-97625238D01*
X153485714Y-97720476D01*
X153533333Y-97910952D01*
X153533333Y-98053809D01*
X153485714Y-98244285D01*
X153438095Y-98339523D01*
X153342857Y-98434761D01*
X153200000Y-98482380D01*
X152961904Y-98482380D01*
X153914285Y-97577619D02*
X153961904Y-97530000D01*
X154057142Y-97482380D01*
X154295238Y-97482380D01*
X154390476Y-97530000D01*
X154438095Y-97577619D01*
X154485714Y-97672857D01*
X154485714Y-97768095D01*
X154438095Y-97910952D01*
X153866666Y-98482380D01*
X154485714Y-98482380D01*
D11*
%TO.C,R2*%
X153954724Y-95622500D02*
X153445276Y-95622500D01*
X153954724Y-94577500D02*
X153445276Y-94577500D01*
%TO.C,R1*%
X145845276Y-95622500D02*
X146354724Y-95622500D01*
X145845276Y-94577500D02*
X146354724Y-94577500D01*
%TO.C,U1*%
X149900000Y-97560000D02*
X149100000Y-97560000D01*
X149900000Y-97560000D02*
X150700000Y-97560000D01*
X149900000Y-94440000D02*
X150700000Y-94440000D01*
X149900000Y-94440000D02*
X148100000Y-94440000D01*
%TO.C,C1*%
X150146267Y-97990000D02*
X149853733Y-97990000D01*
X150146267Y-99010000D02*
X149853733Y-99010000D01*
%TO.C,D1*%
X147585000Y-97435000D02*
X147585000Y-95965000D01*
X147585000Y-95965000D02*
X145300000Y-95965000D01*
X145300000Y-97435000D02*
X147585000Y-97435000D01*
%TO.C,D2*%
X155185000Y-95865000D02*
X152900000Y-95865000D01*
X152900000Y-97335000D02*
X155185000Y-97335000D01*
X155185000Y-97335000D02*
X155185000Y-95865000D01*
%TD*%
M02*
