%TF.GenerationSoftware,KiCad,Pcbnew,6.0.1-79c1e3a40b~116~ubuntu20.04.1*%
%TF.CreationDate,2022-01-27T12:48:56+01:00*%
%TF.ProjectId,picblinker,70696362-6c69-46e6-9b65-722e6b696361,rev?*%
%TF.SameCoordinates,Original*%
%TF.FileFunction,Copper,L1,Top*%
%TF.FilePolarity,Positive*%
%FSLAX46Y46*%
G04 Gerber Fmt 4.6, Leading zero omitted, Abs format (unit mm)*
G04 Created by KiCad (PCBNEW 6.0.1-79c1e3a40b~116~ubuntu20.04.1) date 2022-01-27 12:48:56*
%MOMM*%
%LPD*%
G01*
G04 APERTURE LIST*
G04 Aperture macros list*
%AMRoundRect*
0 Rectangle with rounded corners*
0 $1 Rounding radius*
0 $2 $3 $4 $5 $6 $7 $8 $9 X,Y pos of 4 corners*
0 Add a 4 corners polygon primitive as box body*
4,1,4,$2,$3,$4,$5,$6,$7,$8,$9,$2,$3,0*
0 Add four circle primitives for the rounded corners*
1,1,$1+$1,$2,$3*
1,1,$1+$1,$4,$5*
1,1,$1+$1,$6,$7*
1,1,$1+$1,$8,$9*
0 Add four rect primitives between the rounded corners*
20,1,$1+$1,$2,$3,$4,$5,0*
20,1,$1+$1,$4,$5,$6,$7,0*
20,1,$1+$1,$6,$7,$8,$9,0*
20,1,$1+$1,$8,$9,$2,$3,0*%
G04 Aperture macros list end*
%TA.AperFunction,SMDPad,CuDef*%
%ADD10RoundRect,0.237500X0.250000X0.237500X-0.250000X0.237500X-0.250000X-0.237500X0.250000X-0.237500X0*%
%TD*%
%TA.AperFunction,SMDPad,CuDef*%
%ADD11C,2.000000*%
%TD*%
%TA.AperFunction,SMDPad,CuDef*%
%ADD12RoundRect,0.237500X-0.250000X-0.237500X0.250000X-0.237500X0.250000X0.237500X-0.250000X0.237500X0*%
%TD*%
%TA.AperFunction,SMDPad,CuDef*%
%ADD13RoundRect,0.150000X-0.512500X-0.150000X0.512500X-0.150000X0.512500X0.150000X-0.512500X0.150000X0*%
%TD*%
%TA.AperFunction,SMDPad,CuDef*%
%ADD14RoundRect,0.237500X0.300000X0.237500X-0.300000X0.237500X-0.300000X-0.237500X0.300000X-0.237500X0*%
%TD*%
%TA.AperFunction,SMDPad,CuDef*%
%ADD15RoundRect,0.218750X0.218750X0.256250X-0.218750X0.256250X-0.218750X-0.256250X0.218750X-0.256250X0*%
%TD*%
%TA.AperFunction,Conductor*%
%ADD16C,0.400000*%
%TD*%
%TA.AperFunction,Conductor*%
%ADD17C,0.250000*%
%TD*%
G04 APERTURE END LIST*
D10*
%TO.P,R2,1*%
%TO.N,Net-(R2-Pad1)*%
X154612500Y-95100000D03*
%TO.P,R2,2*%
%TO.N,Net-(R2-Pad2)*%
X152787500Y-95100000D03*
%TD*%
D11*
%TO.P,H2,1,1*%
%TO.N,Net-(C1-Pad1)*%
X153100000Y-98800000D03*
X153100000Y-98800000D03*
%TD*%
%TO.P,H1,1,1*%
%TO.N,Net-(C1-Pad2)*%
X146900000Y-98900000D03*
X146900000Y-98900000D03*
%TD*%
D12*
%TO.P,R1,1*%
%TO.N,Net-(R1-Pad1)*%
X145187500Y-95100000D03*
%TO.P,R1,2*%
%TO.N,Net-(R1-Pad2)*%
X147012500Y-95100000D03*
%TD*%
D13*
%TO.P,U1,1,RA0*%
%TO.N,Net-(R1-Pad2)*%
X148762500Y-95050000D03*
%TO.P,U1,2,VSS*%
%TO.N,Net-(C1-Pad2)*%
X148762500Y-96000000D03*
%TO.P,U1,3,RA1*%
%TO.N,unconnected-(U1-Pad3)*%
X148762500Y-96950000D03*
%TO.P,U1,4,RA2*%
%TO.N,unconnected-(U1-Pad4)*%
X151037500Y-96950000D03*
%TO.P,U1,5,VDD*%
%TO.N,Net-(C1-Pad1)*%
X151037500Y-96000000D03*
%TO.P,U1,6,RA3*%
%TO.N,Net-(R2-Pad2)*%
X151037500Y-95050000D03*
%TD*%
D14*
%TO.P,C1,1*%
%TO.N,Net-(C1-Pad1)*%
X150862500Y-98500000D03*
%TO.P,C1,2*%
%TO.N,Net-(C1-Pad2)*%
X149137500Y-98500000D03*
%TD*%
D15*
%TO.P,D1,1,K*%
%TO.N,Net-(C1-Pad2)*%
X146887500Y-96700000D03*
%TO.P,D1,2,A*%
%TO.N,Net-(R1-Pad1)*%
X145312500Y-96700000D03*
%TD*%
%TO.P,D2,1,K*%
%TO.N,Net-(R2-Pad1)*%
X154487500Y-96600000D03*
%TO.P,D2,2,A*%
%TO.N,Net-(C1-Pad1)*%
X152912500Y-96600000D03*
%TD*%
D16*
%TO.N,Net-(C1-Pad1)*%
X152800000Y-98500000D02*
X153100000Y-98800000D01*
X150862500Y-98500000D02*
X152800000Y-98500000D01*
X152912500Y-96600000D02*
X152912500Y-98612500D01*
D17*
X151100000Y-96100000D02*
X152412500Y-96100000D01*
X152412500Y-96100000D02*
X152912500Y-96600000D01*
X151037500Y-96037500D02*
X151100000Y-96100000D01*
X151037500Y-96000000D02*
X151037500Y-96037500D01*
D16*
X152912500Y-98612500D02*
X153100000Y-98800000D01*
D17*
%TO.N,Net-(C1-Pad2)*%
X148700000Y-96100000D02*
X147487500Y-96100000D01*
X148762500Y-96037500D02*
X148700000Y-96100000D01*
X147487500Y-96100000D02*
X146887500Y-96700000D01*
X148762500Y-96000000D02*
X148762500Y-96037500D01*
D16*
X149137500Y-98500000D02*
X147300000Y-98500000D01*
X146900000Y-98900000D02*
X146900000Y-96712500D01*
X147300000Y-98500000D02*
X146900000Y-98900000D01*
X146900000Y-96712500D02*
X146887500Y-96700000D01*
%TO.N,Net-(R2-Pad1)*%
X154612500Y-96475000D02*
X154487500Y-96600000D01*
X154612500Y-95100000D02*
X154612500Y-96475000D01*
%TO.N,Net-(R1-Pad2)*%
X147062500Y-95050000D02*
X147012500Y-95100000D01*
X148762500Y-95050000D02*
X147062500Y-95050000D01*
%TO.N,Net-(R2-Pad2)*%
X152737500Y-95050000D02*
X152787500Y-95100000D01*
X151037500Y-95050000D02*
X152737500Y-95050000D01*
%TO.N,Net-(R1-Pad1)*%
X145187500Y-96575000D02*
X145312500Y-96700000D01*
X145187500Y-95100000D02*
X145187500Y-96575000D01*
%TD*%
M02*
