0
SECTION
2
ENTITIES
0
LINE
8
FCrtYd
62
7
10
155.35
20
-95.83
11
152.05
21
-95.83
0
LINE
8
FCrtYd
62
7
10
152.05
20
-94.37
11
155.35
21
-94.37
0
LINE
8
FCrtYd
62
7
10
155.35
20
-94.37
11
155.35
21
-95.83
0
LINE
8
FCrtYd
62
7
10
152.05
20
-95.83
11
152.05
21
-94.37
0
LINE
8
FFab
62
5
10
154.5
20
-94.6875
11
154.5
21
-95.5125
0
LINE
8
FFab
62
5
10
152.9
20
-95.5125
11
152.9
21
-94.6875
0
LINE
8
FFab
62
5
10
152.9
20
-94.6875
11
154.5
21
-94.6875
0
LINE
8
FFab
62
5
10
154.5
20
-95.5125
11
152.9
21
-95.5125
0
CIRCLE
8
Cmts
62
1
10
153.1
20
-98.8
40
1.1
0
CIRCLE
8
FCrtYd
62
7
10
153.1
20
-98.8
40
1.3
0
CIRCLE
8
Cmts
62
1
10
146.9
20
-98.9
40
1.1
0
CIRCLE
8
FCrtYd
62
7
10
146.9
20
-98.9
40
1.3
0
LINE
8
FCrtYd
62
7
10
144.45
20
-94.37
11
147.75
21
-94.37
0
LINE
8
FCrtYd
62
7
10
147.75
20
-94.37
11
147.75
21
-95.83
0
LINE
8
FCrtYd
62
7
10
147.75
20
-95.83
11
144.45
21
-95.83
0
LINE
8
FCrtYd
62
7
10
144.45
20
-95.83
11
144.45
21
-94.37
0
LINE
8
FFab
62
5
10
145.3
20
-94.6875
11
146.9
21
-94.6875
0
LINE
8
FFab
62
5
10
146.9
20
-94.6875
11
146.9
21
-95.5125
0
LINE
8
FFab
62
5
10
145.3
20
-95.5125
11
145.3
21
-94.6875
0
LINE
8
FFab
62
5
10
146.9
20
-95.5125
11
145.3
21
-95.5125
0
LINE
8
FCrtYd
62
7
10
147.85
20
-94.3
11
147.85
21
-97.7
0
LINE
8
FCrtYd
62
7
10
151.95
20
-97.7
11
151.95
21
-94.3
0
LINE
8
FCrtYd
62
7
10
151.95
20
-94.3
11
147.85
21
-94.3
0
LINE
8
FCrtYd
62
7
10
147.85
20
-97.7
11
151.95
21
-97.7
0
LINE
8
FFab
62
5
10
149.5
20
-94.55
11
150.7
21
-94.55
0
LINE
8
FFab
62
5
10
150.7
20
-97.45
11
149.1
21
-97.45
0
LINE
8
FFab
62
5
10
149.1
20
-97.45
11
149.1
21
-94.95
0
LINE
8
FFab
62
5
10
149.1
20
-94.95
11
149.5
21
-94.55
0
LINE
8
FFab
62
5
10
150.7
20
-94.55
11
150.7
21
-97.45
0
LINE
8
FCrtYd
62
7
10
148.35
20
-99.23
11
148.35
21
-97.77
0
LINE
8
FCrtYd
62
7
10
148.35
20
-97.77
11
151.65
21
-97.77
0
LINE
8
FCrtYd
62
7
10
151.65
20
-99.23
11
148.35
21
-99.23
0
LINE
8
FCrtYd
62
7
10
151.65
20
-97.77
11
151.65
21
-99.23
0
LINE
8
FFab
62
5
10
149.2
20
-98.9
11
149.2
21
-98.1
0
LINE
8
FFab
62
5
10
149.2
20
-98.1
11
150.8
21
-98.1
0
LINE
8
FFab
62
5
10
150.8
20
-98.9
11
149.2
21
-98.9
0
LINE
8
FFab
62
5
10
150.8
20
-98.1
11
150.8
21
-98.9
0
LINE
8
FCrtYd
62
7
10
147.58
20
-95.97
11
147.58
21
-97.43
0
LINE
8
FCrtYd
62
7
10
144.62
20
-95.97
11
147.58
21
-95.97
0
LINE
8
FCrtYd
62
7
10
144.62
20
-97.43
11
144.62
21
-95.97
0
LINE
8
FCrtYd
62
7
10
147.58
20
-97.43
11
144.62
21
-97.43
0
LINE
8
FFab
62
5
10
146.9
20
-96.3
11
145.6
21
-96.3
0
LINE
8
FFab
62
5
10
145.6
20
-96.3
11
145.3
21
-96.6
0
LINE
8
FFab
62
5
10
145.3
20
-96.6
11
145.3
21
-97.1
0
LINE
8
FFab
62
5
10
146.9
20
-97.1
11
146.9
21
-96.3
0
LINE
8
FFab
62
5
10
145.3
20
-97.1
11
146.9
21
-97.1
0
LINE
8
FCrtYd
62
7
10
155.18
20
-97.33
11
152.22
21
-97.33
0
LINE
8
FCrtYd
62
7
10
155.18
20
-95.87
11
155.18
21
-97.33
0
LINE
8
FCrtYd
62
7
10
152.22
20
-97.33
11
152.22
21
-95.87
0
LINE
8
FCrtYd
62
7
10
152.22
20
-95.87
11
155.18
21
-95.87
0
LINE
8
FFab
62
5
10
154.5
20
-96.2
11
153.2
21
-96.2
0
LINE
8
FFab
62
5
10
152.9
20
-96.5
11
152.9
21
-97.0
0
LINE
8
FFab
62
5
10
154.5
20
-97.0
11
154.5
21
-96.2
0
LINE
8
FFab
62
5
10
152.9
20
-97.0
11
154.5
21
-97.0
0
LINE
8
FFab
62
5
10
153.2
20
-96.2
11
152.9
21
-96.5
0
LINE
8
Edge
62
2
10
144.0
20
-94.0
11
144.25
21
-94.0
0
LINE
8
Edge
62
2
10
155.75
20
-100.25
11
144.0
21
-100.25
0
LINE
8
Edge
62
2
10
144.0
20
-100.25
11
144.0
21
-94.0
0
LINE
8
Edge
62
2
10
155.75
20
-94.0
11
155.75
21
-100.25
0
LINE
8
Edge
62
2
10
144.25
20
-94.0
11
155.75
21
-94.0
0
ENDSEC
0
EOF
